<svg width="48" height="48" viewBox="0 0 48 48" fill="none" xmlns="http://www.w3.org/2000/svg">
  <g clipPath="url(#clip0_1_876)">
    <path d="M0 8.52143V1.472C0 0.659037 0.659037 0 1.472 0H11.4371C12.2501 0 12.9091 0.659037 12.9091 1.472V2.67865C12.9091 3.06798 13.0633 3.44145 13.338 3.71732L22.9569 13.3769C23.5323 13.9547 24.4677 13.9547 25.0431 13.3769L34.662 3.71732C34.9367 3.44145 35.0909 3.06798 35.0909 2.67865V1.472C35.0909 0.659037 35.7499 0 36.5629 0H46.528C47.341 0 48 0.659037 48 1.472V8.52143C48 8.91075 47.8458 9.28422 47.5711 9.56009L25.0431 32.1833C24.4677 32.7611 23.5323 32.7611 22.9569 32.1833L0.428946 9.56009C0.154234 9.28422 0 8.91075 0 8.52143Z" fill="#F7C873"/>
    <path d="M42.5927 48H1.472C0.659037 48 0 47.341 0 46.528V42.2764C0 41.9787 0.0902273 41.6881 0.25878 41.4428L4.19406 35.7153C4.46865 35.3157 4.92242 35.0769 5.40729 35.0769H46.528C47.341 35.0769 48 35.736 48 36.5489V40.8006C48 41.0982 47.9098 41.3889 47.7412 41.6342L43.8059 47.3616C43.5314 47.7612 43.0776 48 42.5927 48Z" fill="#F7C873"/>
  </g>
  <defs>
    <clipPath id="clip0_1_876">
      <rect width="48" height="48" fill="white"/>
    </clipPath>
  </defs>
</svg>