<svg xmlns="http://www.w3.org/2000/svg" width="114" height="102" viewBox="0 0 114 102" fill="none">
  <g clipPath="url(#clip0_1_1137)">
    <path d="M47.7593 10.5184L47.7974 10.5531L47.802 10.554L47.8933 10.6287L48.0166 10.6966L48.1304 10.7735L48.198 10.8069L48.2098 10.8192L48.2347 10.8626L48.2466 10.8794L48.2501 10.8883L48.2513 10.9473L48.2667 11.0187L48.2762 11.0521L48.2987 11.0989L48.3105 11.1178L48.371 11.1802L48.569 11.3385L48.6805 11.4343L48.7587 11.441L48.8974 11.5134L48.9259 11.4978L48.952 11.4767L48.9816 11.4477L49.0895 11.4488L49.1749 11.4399L49.1879 11.4354L49.2472 11.4053L49.2709 11.4009L49.3918 11.3875L49.6076 11.3697L49.6657 11.334L49.7131 11.3095L49.7146 11.3043L49.7297 11.2482L49.7286 11.1936L49.7262 11.178L49.6551 11.0599L49.6172 10.9986L49.578 10.9685L49.4488 10.9295L49.3919 10.9161L49.3627 10.8851L49.3373 10.8582L49.2994 10.8203L49.2627 10.7078L49.2544 10.622L49.3207 10.5796L49.3314 10.5418L49.3373 10.5072V10.427L49.348 10.3334L49.5187 10.1518L49.5733 10.0995L49.61 10.0315L49.6207 10.0114L49.6693 9.95016L49.7618 9.95574L49.9159 9.98025L49.9615 9.98985L49.974 9.99249L49.9923 9.94968L50.0748 9.75633L50.1099 9.66784L50.1163 9.65162L50.1424 9.58144L50.1353 9.45223L50.1026 9.27314L50.0997 9.2573L50.076 9.19158L50.0749 9.07464L50.1365 8.97774L50.2017 8.90646L50.2432 8.85857L50.3155 8.72492L50.3724 8.53895L50.3839 8.49932L50.4424 8.29618L50.4435 8.19596L50.3167 8.11579L50.2266 8.05009L50.1495 7.87639L50.1436 7.79846L50.1615 7.7628L50.2361 7.61474L50.274 7.57799L50.3463 7.58913L50.3641 7.59359L50.4767 7.65928L50.6653 7.78843L50.7208 7.82943L50.7874 7.87862L50.8443 7.9265L51.0079 8.03228L51.1324 8.08461L51.2948 8.09575L51.4266 8.10123L51.4822 8.10355L51.5592 8.09463L51.5711 8.09241H51.7548L51.7987 8.09686L51.8212 8.17927L51.826 8.19596L51.8271 8.22603L51.839 8.31512L51.8473 8.34964L51.8556 8.38304L51.8769 8.46991L51.8776 8.47698L51.8864 8.5679L51.8888 8.68373L51.8947 8.72382L51.8983 8.73606L51.9161 8.75946L51.941 8.78172L51.9671 8.79621L51.9709 8.79759L51.9825 8.80178L52.0169 8.80846L52.0418 8.81292L52.0524 8.80956L52.069 8.79843L52.0773 8.79175L52.0797 8.75834L52.0821 8.56233L52.2753 8.54229L52.4223 8.60465L52.5943 8.61133L52.7887 8.60019L52.9203 8.58127L53.0104 8.559L53.0946 8.55677L53.2736 8.55787L53.3151 8.65922L53.3791 8.65588L53.391 8.65811L53.4005 8.66702L53.4052 8.69263L53.474 8.97774L53.4906 8.98109L53.5202 8.99L53.6009 9.00558L53.6625 9.0145L53.7834 9.02229L53.8143 9.11697L53.9506 9.17934L54.0597 9.28514L54.1759 9.42773L54.1996 9.54246L54.2778 9.58144L54.5399 9.67612L54.5802 9.68726L54.6051 9.69283L54.6428 9.70336L54.713 9.72292L54.7153 9.70817L54.7284 9.62488L54.726 9.52352L54.8351 9.52797L54.9383 9.53689L55.0129 9.57141L55.1418 9.688L55.1742 9.71734L55.2014 9.74186L55.2809 9.79531L55.3332 9.83469L55.454 9.92565L55.5192 9.98136L55.8263 10.1808L55.863 10.2075L55.901 10.2688L55.9164 10.3646L55.9401 10.4626L56.0148 10.4303L56.1239 10.3223L56.2247 10.29L56.4736 10.3156L56.5683 10.3294L56.5958 10.3334L56.6119 10.3015L56.6444 10.2376L56.77 10.1284L56.789 10.1184L56.8613 10.0816L56.8839 10.0671L56.9076 10.0616L56.9752 10.0437L56.9851 10.0411L56.9965 10.0382L57.0712 9.97579L57.0937 9.86884L57.1115 9.70063L57.1151 9.55916L57.0742 9.45647L57.0641 9.43107L57.1649 9.33638L57.2324 9.26733L57.4956 9.16597L57.5976 9.12811L57.6818 9.13479L57.7423 9.23058L57.7577 9.33638L57.7992 9.49232L57.8252 9.61931L57.8584 9.76079L57.9296 9.88778L58.0375 9.94794L58.1833 9.9769L58.2805 10.0092L58.3244 10.0237L58.3351 10.0259L58.4524 10.1039L58.5473 10.1663L58.6659 10.2265L58.7429 10.2632L58.8485 10.3L58.8899 10.3167L59.0215 10.3156L59.1128 10.2888L59.1223 10.2721L59.1555 10.2242L59.1873 10.1491L59.1923 10.1373L59.2041 10.1173L59.261 9.80311L59.3191 9.52129L59.3261 9.48904L59.3334 9.45557L59.3867 9.30297L59.4436 9.1036L59.5053 8.97997L59.5492 8.90646L59.6571 8.78841L59.7851 8.6815L59.7993 8.67816L59.861 8.65476L59.8989 8.63918L59.9333 8.62358L59.9617 8.61913L59.9938 8.61133L60.0708 8.60019L60.1171 8.59352L60.1681 8.58684L60.2356 8.58349L60.2712 8.58127L60.3578 8.55787L60.4609 8.53783L60.6115 8.52112L60.7869 8.50888L60.8569 8.50554L60.9707 8.51334L61.0264 8.51778L61.1249 8.50665L61.2019 8.47325L61.2897 8.44094L61.3454 8.43316L61.4153 8.42536L61.5031 8.43093L61.5849 8.43427L61.6809 8.43316L61.7153 8.43427L61.8125 8.42202L61.8398 8.41979L61.9074 8.38861L61.95 8.37079L61.9726 8.36299L62.0176 8.3218L62.2002 8.17814L62.2903 8.09463L62.4018 7.98328L62.5002 7.9187L62.5879 7.87305L62.6851 7.82963L62.729 7.81515L62.8654 7.80401L62.9472 7.80736L63.0159 7.82852L63.1535 7.86638L63.3538 7.91425L63.393 7.92984L63.4582 7.95545L63.5412 7.99219L63.6336 8.05232L63.6668 8.07347L63.738 8.14808L63.8565 8.25386L63.9395 8.36633L64.0581 8.44317L64.1826 8.47992L64.2537 8.50443L64.3308 8.55009L64.4055 8.62358L64.4363 8.65142L64.4671 8.69263L64.6568 9.02785L64.6794 9.06684L64.7541 9.24839L64.8228 9.4177L64.8916 9.48008L64.9699 9.538L65.0339 9.59147L65.054 9.60818L65.0896 9.62265L65.1429 9.64939L65.1726 9.66388L65.2105 9.69283L65.2366 9.70843L65.252 9.72736L65.2959 9.78974L65.3291 9.84657L65.3362 9.86215L65.354 9.87664L65.3907 9.90004L65.4346 9.93902L65.4797 9.97913L65.5864 10.0961L65.6631 10.1673L65.6872 10.1897L65.7207 10.208L65.82 10.2621L65.9563 10.3323L66.0345 10.3668L66.0476 10.3813L66.0654 10.3969L66.0997 10.4069L66.2136 10.4314L66.2468 10.4392L66.5621 10.4682L66.6167 10.4749L66.6392 10.4782L66.7151 10.5039L66.8206 10.5362L66.8929 10.5685L66.9143 10.5785L66.951 10.6086L66.9913 10.6365L67.0732 10.7133L67.1822 10.8181L67.2273 10.8716L67.2712 10.934L67.3304 11.0042L67.4265 11.0989L67.4775 11.1446L67.5557 11.1802L67.6091 11.207L67.6719 11.2438L67.6944 11.2571L67.7288 11.2894L67.7501 11.3184L67.7751 11.3719L67.7976 11.4354L67.8082 11.5157L67.8106 11.5391L67.794 11.6249L67.7952 11.6472L67.8165 11.7575L67.8236 11.7865L67.8568 11.84L67.9125 11.9303L67.9493 12.0049L67.9766 12.0384L68.0904 12.1866L68.2184 12.3382L68.3192 12.4675L68.4152 12.5946L68.4366 12.6604L68.4567 12.7239L68.4698 12.822L68.4828 12.9112L68.5125 12.9435L68.5255 12.9636L68.5445 13.0093L68.5243 13.142L68.5326 13.1598L68.5789 13.2278L68.5883 13.2736L68.5895 13.2914L68.5836 13.3048L68.5421 13.3438L68.4638 13.3605L68.4496 13.3817L68.4093 13.4809L68.3749 13.588L68.3132 13.8701L68.2907 14.0195L68.2717 14.2013L68.1876 14.3318L68.1212 14.4779L68.088 14.5459L68.0844 14.5994L68.0761 14.6664L68.0939 14.8192L68.1472 14.9352L68.1627 14.9697L68.1662 14.9943L68.1686 15.0188L68.1733 15.0467L68.1828 15.0668L68.2148 15.1482L68.2373 15.2174L68.2445 15.2408L68.2468 15.3055V15.4148V15.4371L68.2291 15.4728L68.2018 15.5297L68.0856 15.6111L68.0113 15.6523L67.999 15.6591L67.9291 15.7026L67.9236 15.7112L67.7726 15.9458L67.6872 16.102L67.5402 16.3743L67.4703 16.516L67.4169 16.6622L67.3932 16.7581L67.3647 16.8876L67.3161 17.0494L67.2651 17.1755L67.2474 17.2079L67.2414 17.2302L67.2153 17.3585L67.2248 17.507L67.239 17.6454L67.2865 17.7625L67.3339 17.8764L67.4762 18.0784L67.5758 18.2135L67.673 18.3609L67.7572 18.5417L67.769 18.6221L67.7572 18.7393L67.6848 18.8398L67.5034 18.9671L67.379 19.0799L67.3221 19.1256L67.1241 19.263L66.9675 19.3501L66.849 19.4115L66.7945 19.4427L66.7399 19.4852L66.6913 19.5131L66.5893 19.5645L66.485 19.6069L66.3688 19.6649L66.2514 19.7353L66.1649 19.7666L66.0715 19.8068L66.0119 19.8325L65.9821 19.8557L65.8732 19.9408L65.7238 20.067L65.6474 20.17L65.6278 20.1965L65.6036 20.2711L65.5851 20.3283L65.5815 20.4233L65.5958 20.5841L65.6053 20.6288L65.6242 20.6824L65.6337 20.7293L65.6432 20.7818L65.6468 20.8388L65.617 20.8461L65.6375 21.4666L65.5356 21.9079L65.5999 22.0962L65.8853 22.0735L66.1367 21.9281L66.3795 21.8271L66.6811 21.7642L67.0096 21.7796L67.2558 21.9007L67.4326 22.219L67.468 22.4177L67.4257 23.0641L67.3896 23.5841L67.4112 23.6639L67.5027 24.0105L67.6289 24.5073L67.6392 25.0516L67.6084 25.5248L67.6291 26.006L67.5806 26.4659L67.439 26.8103L67.244 26.9968L67.1272 27.0299L66.71 27.0629L66.4584 27.1634L66.8346 27.7639L67.0135 27.9963L67.4057 28.3174L67.6072 28.383L67.8586 28.4298L68.6415 28.5697L68.9254 28.5887L69.3286 28.7115L69.41 28.7567L69.4633 28.9216L69.5143 28.9989L69.5686 29.1483L69.8418 29.2058L69.9215 29.262L70.2582 29.8965L70.4306 29.9742L70.6458 30.0062L70.7354 30.087L70.7958 30.2001L70.9653 30.353L71.07 30.3834L71.1502 30.3558L71.2081 30.3958L71.2707 30.4771L71.6098 30.7907L71.7597 30.9755L71.8659 31.0088L71.9951 31.0172L72.0555 30.9356L72.1272 30.8839L72.366 30.7795L72.5087 30.7449L72.6505 30.7586L72.8119 30.5848L72.8983 30.5341L73.0448 30.5177L73.1422 30.5652L73.2081 30.6579L73.2771 30.9123L73.3662 30.9802L73.483 31.016L73.8149 31.0239L73.8647 30.9396L73.8822 30.8237L73.9434 30.7019L74.138 30.4803L74.2868 30.4053L74.4485 30.3886L74.5894 30.4369L74.7218 30.5124L74.8381 30.4781L74.9775 30.4063L75.1302 30.4112L75.2543 30.3839L75.596 30.0661L75.7749 29.9699L75.859 30.081L76.0335 30.1442L76.3062 30.5408L76.4925 30.7738L76.571 30.9336L76.7793 31.6033L76.9587 32.0009L77.0662 32.3629L77.3693 32.9878L77.4993 33.1389L77.552 33.1964L77.6281 33.2404L77.7948 33.1894L77.9038 33.1285L77.9798 33.0596L78.0184 32.9445L78.0741 32.849L78.1438 32.8102L78.2543 32.7876L78.3436 32.8272L78.6188 33.0623L78.7191 32.9905L78.8142 32.9216L78.9105 32.8296L79.1308 32.7247L79.2542 32.7105L79.4776 32.6847L79.5165 32.6367L80.3308 32.248L80.4566 32.284L80.6503 32.339L80.7683 32.3363L80.879 32.3142L81.0754 32.216L81.1251 32.209L81.1605 32.204L81.2832 32.2388L81.526 32.4643L81.84 32.5136L81.9178 32.5765L81.9532 32.7217L82.0221 32.8174L82.1165 32.8843L82.2855 33.0598L82.2891 33.081L82.3042 33.1566L82.322 33.1819L82.3709 33.2499L82.5814 33.3272L83.0143 33.5805L83.118 33.6601L83.2676 33.8617L83.6048 33.9612L83.9564 34.1693L84.0915 34.27L84.1674 34.3772L84.3368 34.556L84.4124 34.742L84.5988 34.8146L84.7399 34.9381L84.8822 34.9213L84.902 34.9518L84.9394 35.009L84.956 35.1015L84.975 35.2099L84.9484 35.2472L84.9027 35.3114L84.914 35.3586L84.9297 35.4237L84.9853 35.5401L85.1857 35.7997L85.2708 35.9099L85.3335 36.079L85.6224 36.2416L85.7158 36.3186L85.8085 36.3542L85.8512 36.3908L85.8924 36.4263L85.9164 36.4758L86.0753 36.5447L86.1237 36.6325L86.1322 36.7036L86.1394 36.7667L86.3596 36.8704L86.4357 36.8624L86.5335 36.9811L86.443 37.0166L86.3773 37.1588L86.3369 37.3951L86.8861 37.7337L86.9938 37.6504L87.017 37.6325L87.1219 37.6196L87.2231 37.6527L87.2791 37.7817L87.2378 37.8762L87.16 37.9943L86.9535 38.1922L86.9588 38.2362L86.9668 38.3004L87.0258 38.3924L87.1286 38.4779L87.1659 38.5729L87.1365 38.6744L87.1322 38.7656L87.1289 38.8382L87.1611 38.9362L87.2193 39.1132L87.4288 39.4009L87.6319 39.8117L87.6696 39.9434L87.6905 40.2362L87.6741 40.3085L87.8414 40.4256L87.8808 40.5797L87.9835 40.7429L88.045 40.7961L88.0968 40.8077L88.138 40.8172L88.2168 40.904L88.3921 41.2347L88.4916 41.3637L88.5968 41.3677L88.6786 41.4048L88.7221 41.459L88.7589 41.5055L88.7629 41.6114L88.7378 41.6915L88.6634 41.7733L88.2916 41.9441L87.9801 42.1157L87.391 42.382L87.3658 42.7137L87.3727 42.9936L87.4231 43.5526L87.6853 43.7237L87.9043 43.7471L88.1175 43.77L88.7291 43.7398L88.8968 43.708L89.0037 43.6872L89.3261 43.3845L89.3217 43.2654L89.5022 43.1694L89.523 43.0476L89.4975 42.5319L89.5131 42.376L89.4841 42.2223L89.5272 42.0789L89.6588 42.0143L89.7934 42.0008L89.9093 42.0217L90.0436 42.152L90.5294 42.2027L90.5955 42.3104L90.64 42.4218L90.7387 42.6687L90.7329 42.7701L90.6927 42.8245L90.5835 42.8815L90.4647 42.8882L90.2814 42.844L90.272 42.8693L90.2575 42.9076L90.2645 42.9499L90.2759 43.0185L90.358 43.2599L90.368 43.3838L90.3443 43.6359L90.4468 44.0504L90.4398 44.1136L90.4337 44.1723L90.4396 44.2163L90.4463 44.2682L90.5115 44.363L90.5606 44.4032L90.5918 44.4288L90.6023 44.5233L91.0786 44.5268L91.3732 44.4791L91.5676 44.4736L91.8485 44.3782L92.3474 44.1071L92.443 44.0295L92.4656 43.9731L92.6526 43.9161L92.7931 43.7386L92.9012 43.6702L93.1849 43.6359L93.3872 43.6412L93.3912 43.886L93.4152 44.0447L93.3611 44.2528L93.234 44.391L92.7806 44.7593L92.7355 44.917L92.7916 45.2439L92.7926 45.3775L92.7556 45.5528L92.6963 45.7275L92.6468 45.8076L92.8574 46.0349L93.1334 46.5844L93.1946 46.7413L93.1027 47.0382L93.1121 47.0469L93.1261 47.1218L93.1433 47.2145L93.2 47.3597L93.2569 47.5285L93.2934 47.7461L93.3333 47.8876L93.3614 47.9918L93.3737 48.1615L93.3912 48.3988L93.4449 48.7442L93.4964 49.0748L93.5402 49.1716L93.5482 49.233L93.5594 49.3176L93.627 49.4396L93.6608 49.7392L93.8434 49.827L93.9025 49.9548L93.9748 50.429L94.0904 51.1857L94.1267 51.573L94.1522 51.8416L94.3573 52.3807L94.8531 53.0505L94.9828 53.1373L95.1718 53.1933L95.4399 53.2221L95.5723 53.2032L95.6852 53.187L95.7674 53.1654L95.8795 53.136L95.9512 53.0314L96.0283 52.9202L96.2157 52.7121L96.2657 52.5248L96.4806 52.37L96.7632 52.2203L97.0678 52.0907L98.0237 51.4865L98.4429 51.5738L98.6278 51.5701L98.7154 51.5932L98.8316 51.624L99.3686 51.9734L99.5401 52.0651L99.7283 52.1415L100.38 52.4935L100.613 52.535L101.479 52.5502L101.902 52.4883L102.174 52.4866L102.409 52.5154L102.637 52.5072L102.96 52.5361L103.05 52.5562L103.212 52.594L103.383 52.6629L103.625 52.7084L103.646 52.6312L103.878 52.5932L104.089 52.6629L104.251 52.6748L104.381 52.5438L104.378 52.3866L104.505 52.283L104.667 52.2661L104.865 52.4033L104.957 52.415L105.503 52.1807L105.688 52.1755L105.769 52.2187L105.834 52.3503L105.88 52.5465L105.983 52.6781L106.045 52.724L106.161 52.7303L106.423 52.6343L106.797 52.632L107.156 52.5248L107.86 52.3882L108.126 52.1564L108.229 52.1019L108.382 52.1153L108.858 52.32L109.002 52.4112L109.287 52.4132L109.4 52.2479L109.607 52.1879L109.793 52.0383L109.92 51.8931L110.076 51.8184L110.16 51.6297L110.157 51.396L110.232 51.2419L110.323 51.0996L110.429 50.9845L110.582 50.8823L110.706 50.845L110.948 50.8661L111.085 50.8189L111.211 50.6866L111.45 50.9169L111.485 51.0613L111.582 51.2752L112.159 50.9527L112.957 50.4738L113.085 50.6717L113.22 50.8383L113.534 51.0367L113.686 51.2408L113.817 51.4892L113.858 51.6974L113.694 51.8194L113.557 52.0007L113.097 52.051L112.823 52.3399L112.473 52.2579L112.241 52.3153L112.087 52.4167L111.74 52.6681L111.602 52.8061L111.459 53.1808L111.288 53.3994L111.123 53.5272L110.872 53.613L110.331 53.6502L110.054 53.6495L109.584 53.7204L109.472 53.825L109.328 54.1147L109.238 54.1966L108.559 54.5193L108.426 54.6329L108.334 54.8174L108.31 54.9875L108.288 55.2095L108.29 55.5833L108.215 55.7086L108.016 55.8622L107.853 56.1174L107.664 56.5075L107.62 56.6418L107.366 57.0117L106.987 57.301L106.811 57.5225L106.746 57.6796L106.746 57.8097L106.711 57.8845L106.588 58.0198L106.831 58.1918L107.036 58.3713L107.111 58.4492L107.106 58.5213L107.021 58.6482L106.857 58.8309L106.741 59.0283L106.55 59.2759L106.501 59.4704L106.465 60.0042L106.502 60.2163L106.469 60.5033L106.355 60.826L106.358 61.1001L106.411 61.24L106.399 61.4032L106.35 61.5272L106.065 61.9405L105.822 62.2555L105.449 62.6069L105.306 62.7827L105.17 62.9726L105.056 63.1959L104.86 63.3642L104.522 63.4328L104.477 63.5771L104.411 63.6952L104.181 63.7006L103.652 63.8568L103.488 63.8322L103.317 63.8061L103.121 63.7293L102.769 63.5238L102.606 63.3448L102.597 63.1039L102.458 62.9898L102.283 62.9376L102.142 62.9736L102.087 63.0109L101.816 63.3682L101.567 63.7425L101.497 63.9312L101.256 64.294L101.072 64.4877L100.707 64.7304L100.584 64.6821L100.467 64.6642L99.8873 64.6602L99.4997 64.6871L98.7903 64.5471L98.5716 64.6749L98.4888 64.8668L98.3326 65.0921L98.2992 65.3156L98.3123 66.0566L98.3994 66.213L98.5471 66.3565L98.2338 66.6618L98.1039 66.904L97.6738 66.9269L96.9913 67.1027L96.1514 67.3749L95.5953 67.6122L95.3866 67.462L95.2047 67.3705L95.1376 67.6012L95.0404 67.7156L94.9129 67.7823L94.8282 67.9043L94.6966 68.0456L94.1784 68.1008L93.9868 68.1614L93.8256 68.2188L93.6736 68.2266L93.2039 68.0985L92.9459 68.0073L92.74 67.88L92.5235 67.7047L92.3139 67.5891L92.0644 67.5692L91.8949 67.5833L91.683 67.6821L91.74 67.8917L91.7238 68.1159L91.761 68.2602L91.8742 68.3661L91.9204 68.464L91.8987 68.6896L91.8536 68.8701L91.8814 69.0581L91.7838 69.1451L91.6487 69.1774L91.4537 69.1867L91.2717 69.1799L90.9699 69.0767L90.809 69.0494L90.7214 69.5884L90.6384 69.7531L90.4284 69.9169L90.6569 70.3046L90.6116 70.5579L90.6154 70.6599L90.4636 70.9834L90.5231 71.4227L90.4246 71.592L90.3157 71.6888L90.1747 71.8705L89.8651 72.0478L89.7863 71.883L89.6346 71.7477L89.1357 71.6294L88.8769 71.6169L88.6883 71.503L88.5614 71.4737L88.2098 71.4364L87.7234 71.3216L87.203 71.0806L86.8758 71.0595L86.4407 70.9876L86.1621 70.9779L86.0971 71.0883L85.9535 71.1634L85.7573 71.1972L85.5784 71.2768L85.294 71.33L85.0547 71.3166L84.9132 71.2231L85.0077 71.0557L85.0087 70.8983L85.1741 70.77L85.4491 70.5992L85.4799 70.5049L85.2209 70.3384L84.975 70.2755L84.6964 70.1574L84.8091 69.9515L84.6635 69.9052L84.4797 69.8103L84.3894 69.7868L84.1638 69.815L83.945 69.7143L83.5747 69.431L83.4057 69.3231L83.0737 69.255L82.7968 69.6133L82.6118 69.6931L82.4564 69.7085L82.3003 69.8612L82.0572 69.9979L81.8653 70.0462L81.476 70.0052L81.4864 70.1685L81.3833 70.3886L81.2918 70.5156L81.2432 70.6258L81.1894 71.0065L81.1901 71.287L81.1289 71.4371L80.951 71.6227L80.8681 71.7397L80.6806 71.7626L80.3977 71.7661L80.2321 72.2639L79.8933 72.1455L79.591 72.069L79.522 71.9757L79.4351 71.648L79.1004 71.3397L79.0513 71.2004L79.073 71.0646L79.0125 70.8498L78.9562 70.7584L78.909 70.7523L78.8323 70.7924L78.5563 71.0423L78.4342 71.1179L78.2555 71.2805L78.2744 71.3768L78.3708 71.5053L78.5396 71.8387L78.5105 71.9941L78.5272 72.1068L78.6737 72.1958L78.7973 72.3375L78.7771 72.5056L78.7419 72.614L78.6291 72.6861L78.3601 72.7906L78.3604 72.8574L78.3707 73.0074L78.3234 73.111L78.1077 73.3222L78.0373 73.4174L78.0915 73.4206L78.6 73.6193L79.0194 73.7561L79.3866 73.8267L80.1398 74.0562L80.4028 74.2205L80.6562 74.4224L80.821 74.5144L80.9963 74.6472L81.269 74.74L81.2134 74.5013L81.2471 74.2571L81.3559 73.9756L81.8163 74.1184L82.089 74.2685L82.3645 73.9259L83.306 74.505L83.6727 74.5142L83.7962 74.7591L83.8254 74.8844L83.8017 74.9963L83.7148 75.0662L83.6212 75.0965L83.5991 75.2537L83.652 75.4071L83.7123 75.4929L83.7365 75.8216L83.4811 75.8425L83.1934 75.9434L83.1898 76.4191L83.1692 76.6018L83.13 76.757L82.9342 77.0437L82.9702 77.2023L83.1005 77.2342L83.2442 77.2349L83.3629 77.3592L83.714 77.4945L83.9085 77.7119L84.0117 77.8583L84.1694 77.9645L84.0052 78.0308L83.3022 78.3874L83.1395 78.5843L82.7329 78.4643L82.3226 78.4046L82.0235 78.4367L81.8469 78.4076L81.3118 78.2603L81.19 78.1248L81.0505 78.0343L80.85 77.9505L80.4854 77.908L80.4525 77.499L80.3908 77.2799L80.1952 77.1779L79.8726 77.0671L79.8795 76.9842L79.6483 76.9313L79.6127 76.7371L79.5444 76.6078L79.0715 76.4233L79.0831 76.7389L79.0575 76.8748L78.9347 77.0345L78.5646 77.1745L78.5262 77.3498L78.4771 77.3958L78.4036 77.3841L78.2584 76.9947L78.1989 76.6928L78.1112 76.4074L78.0468 76.2948L77.8543 76.3348L77.4563 76.2742L77.5151 75.9922L77.2658 75.8942L77.0639 75.8962L77.0445 75.7346L76.9837 75.5715L76.9869 75.3063L76.9159 74.8752L76.968 74.8656L76.7802 74.5815L76.6833 74.1922L76.6189 73.7846L76.3098 73.2639L75.9903 72.855L75.6411 72.4228L75.3441 72.5036L75.1167 72.6173L74.982 72.6292L74.8945 72.5645L74.5354 72.1993L74.42 72.2102L74.1217 72.3604L73.9793 72.2385L73.9932 72.0484L73.9474 71.6301L73.6446 71.5697L73.3554 71.9309L73.2718 72.0998L72.8212 72.4869L72.6555 72.6503L72.6081 72.854L72.4407 73.0511L72.2671 73.0519L72.0987 73.015L71.9623 73.0384L71.9153 73.1267L71.7406 73.1516L71.583 73.1147L71.2892 72.9994L71.1958 73.2421L71.203 73.6023L70.2464 73.5499L70.0263 74.2667L69.8128 74.492L69.5659 74.7059L69.3403 74.993L69.1713 75.3857L68.9787 75.7377L68.8944 76.0873L68.9557 76.114L69.447 76.3437L69.9275 76.3559L69.9591 76.4725L69.9598 76.6873L70.0165 76.8547L70.1455 77.012L70.8397 77.3217L70.7214 77.5976L70.5404 78.1106L70.3888 78.3739L70.2966 79.0239L70.1832 79.1594L69.9191 79.3563L69.6833 79.6871L69.5179 79.8524L69.1616 80.0732L68.9444 80.2848L68.8904 80.3318L68.4291 81.1531L68.0583 81.5875L67.6695 81.8217L67.1981 81.8687L66.9527 81.8092L66.6596 81.692L66.3814 81.4007L66.1253 80.7391L65.942 80.4276L65.656 80.1908L65.2252 80.2346L64.7601 80.3587L64.3695 80.383L63.6991 79.5289L63.4877 79.4125L63.1931 79.4719L62.8786 79.6463L62.4626 80.1958L62.1867 80.3303L61.1964 80.3857L60.8373 80.5441L60.5096 80.7908L60.3233 81.0914L59.9557 81.1195L59.5445 81.0258L59.123 81.0598L58.7658 81.3562L58.4773 81.5492L58.2174 81.6865L57.9778 81.773L57.5468 81.8483L56.9335 81.7963L56.5607 81.8744L55.8852 82.1668L55.3988 82.4055L55.2133 82.7897L54.9975 82.9896L54.8002 83.0677L54.2045 83.1194L52.7783 83.1412L52.4742 83.1671L52.1361 83.233L51.5211 83.4449L51.2033 83.4924L50.7976 83.5911L50.6644 83.9653L49.908 84.6399L49.7789 84.9151L49.7498 85.315L49.9196 85.5753L50.0248 85.8483L50.051 86.1504L49.806 86.2997L49.6241 86.657L49.5232 87.2141L49.4629 87.7612L49.4804 88.2428L49.4347 88.5308L49.7282 88.8403L49.8433 89.1772L49.8924 90.0871L49.7736 91.334L49.6148 91.5934L49.336 91.8164L48.9487 92.0141L48.5645 92.1531L48.219 92.076L47.9309 91.9668L47.7141 91.8515L47.482 91.6745L47.2283 91.6364L45.8711 91.6307L45.509 91.5208L45.2209 91.4613L44.9319 91.4417L44.6626 91.4783L44.4141 91.5732L43.9715 91.8754L43.613 92.0054L43.1378 92.1508L42.6909 92.3351L42.3021 92.5208L41.8676 92.8018L41.8022 93.0299L41.8054 93.4513L42.1863 94.2283L42.2115 94.5217L42.0967 94.7293L41.9991 94.8457L41.9274 94.9357L41.6954 95.1247L41.3934 95.1013L40.9845 94.8126L40.9035 94.5277L40.8686 94.1888L40.8264 93.9749L40.7417 93.7454L40.5799 93.6085L40.3263 93.5851L40.1156 93.6547L39.9733 93.7783L39.9326 94.0174L39.952 94.2455L40.0186 94.5647L40.1219 94.7955L40.1767 94.9951L40.1541 95.2087L40.0823 95.3794L39.7095 96.0054L39.5153 96.2543L39.3714 96.4035L38.9229 96.7389L38.5495 96.965L38.023 97.0296L37.6501 97.0263L37.3254 96.9791L37.0187 96.8891L36.3426 96.548L36.0537 96.3329L35.8889 96.1646L35.6242 95.7757L35.3483 95.4949L35.0937 95.2781L34.6079 95.0926L34.2709 95.154L33.9982 95.383L33.5957 95.803L33.3634 96.0136L33.1642 96.1504L32.8591 96.1546L32.5089 96.0024L32.2091 95.9341L31.5796 95.7346L30.4675 95.5372L29.7178 95.4919L29.3365 95.5392L28.8023 95.766L28.4478 96.064L28.0257 96.1966L27.7091 96.2399L27.4779 96.3811L27.2887 96.626L27.1053 96.8272L26.5061 96.8436L26.2286 96.7541L25.9069 96.6877L25.6203 96.7737L25.4884 96.9135L25.6705 97.4257L25.697 97.683L25.5272 98.0881L25.4815 98.2771L25.413 98.34L25.3879 98.5454L25.3046 98.8708L25.276 99.1173L25.1539 99.3161L24.902 99.4546L24.3415 99.6143L24.1238 99.7342L23.7088 100.027L23.6879 100.164L23.7451 100.346L23.685 100.541L23.5545 100.722L23.4751 100.873L23.4255 101.203L23.3258 101.307L22.983 101.306L22.9201 101.282L22.6584 101.276L22.357 101.308L22.3831 101.657L22.2063 101.772L21.9516 101.849L21.7412 101.831L20.8065 101.417L20.6769 101.272L20.4374 100.766L20.2341 100.73L20.2117 100.086L20.1237 99.9865L19.9367 99.9716L19.8231 100.074L19.6417 100.159L19.586 100.317L19.3833 100.735L19.2651 101.052L19.0591 101.009L18.5421 100.682L18.2977 100.638L17.8224 100.662L17.4302 100.623L16.913 100.414L16.417 100.14L16.1353 100.138L15.8999 100.228L15.6183 100.641L15.4801 100.689L15.222 100.686L15.0744 100.647L14.8624 100.69L14.6723 100.797L14.4601 100.858L14.2099 100.901L13.9755 100.869L13.7037 100.802L13.487 100.703L13.2337 100.616L12.9741 100.638L12.7045 100.573L12.5331 100.481L12.3561 100.417L12.138 100.372L11.9182 100.434L11.7222 100.525L11.5488 100.652L11.3253 100.688L10.712 100.622L10.4444 100.562L10.2296 100.458L10.0412 100.242L9.88307 100.06L9.71127 99.9452L9.58718 99.8438L9.40089 99.7468L9.20908 99.8211L8.95294 99.8646L8.74552 99.7846L8.53426 99.7322L7.96587 99.6986L7.53924 99.6377L6.98341 99.5198L7.11131 98.9586L7.14423 98.6097L7.11869 98.4682L6.97239 98.3616L6.88524 98.2316L6.88467 98.0801L6.95714 97.6557L6.99978 97.496L6.78973 97.4142L6.75472 97.2697L6.7121 97.2066L6.71818 97.1253L6.54998 96.9162L6.51625 96.7904L6.63957 96.3657L6.60988 96.3142L6.65326 96.1899L6.73584 96.2028L6.82094 95.7311L6.57358 95.572L6.57033 95.4691L6.69499 95.1346L6.83426 95.0277L6.98211 94.9777L6.81538 94.83L6.63388 94.7012L6.50394 94.6637L6.41524 94.6736L6.463 94.4075L6.45083 93.8871L6.41865 93.7457L6.33929 93.6096L6.45764 93.1091L6.62091 92.8993L6.62148 92.6946L6.5905 92.4256L6.63103 92.2557L6.80572 92.1886L6.9667 92.2075L7.02628 92.1516L7.01598 91.9987L6.8032 91.9628L6.58855 92.0066L6.46737 91.9735L6.471 91.5389L6.43729 91.3402L6.72197 91.1403L6.7528 91.0702L6.77832 90.8929L7.07419 90.8206L7.22983 90.8165L7.35677 90.8439L7.39162 90.9125L7.59024 91.0217L7.7393 90.5244L7.82547 90.4143L7.98247 90.3245L8.36858 90.1494L8.4751 90.2225L8.60185 90.3675L8.76001 90.4391L8.99995 90.4194L9.04923 90.3384L8.95142 90.2007L9.01724 89.9778L9.01342 89.7946L8.90861 89.584L8.85245 89.3953L9.03247 89.1598L8.90365 89.1494L8.53962 89.1986L8.10766 89.0591L7.98207 88.9815L7.85325 88.8552L7.62451 88.7762L7.46182 88.6414L7.21806 88.3492L7.00075 88.3475L6.61028 88.208L6.2832 88.1588L5.78271 88.2167L5.47479 88.2077L5.20404 88.2418L5.13133 88.2855L4.94634 88.4743L4.80724 88.5299L4.54638 88.534L4.28148 88.4507L3.95763 88.3072L3.58502 88.1053L3.0697 88.1876L2.83056 88.1102L2.57571 87.897L1.93313 87.7547L1.62405 87.6159L1.37673 87.5314L1.21573 87.3397L1.12973 87.1649L0.992505 87.0321L0.871095 86.8588L0.716981 86.4297L0.573512 86.2809L0.142578 85.9133L0.234519 85.7932L0.375708 85.8103L0.55 85.9177L1.39433 85.828L1.55987 85.7751L1.65479 85.5835L1.68164 85.4704L1.67576 85.3317L1.98631 85.3846L2.09916 85.4291L2.3682 85.5938L2.50655 85.5997L2.84833 85.5657L2.84736 85.4955L2.9541 85.4797L3.04717 85.5343L3.21026 85.5386L3.41274 85.5147L3.43478 85.4446L3.4382 85.2745L3.48255 85.0671L3.5777 84.9699L3.73181 84.853L3.7836 84.8327L3.97198 84.8185L4.09188 84.7501L4.26884 84.7229L4.55237 84.7762L4.63573 84.6762L4.64408 84.0255L4.29283 83.9564L4.26445 83.8706L4.18017 83.8044L4.16721 83.7386L4.12406 83.6714L4.06942 83.6413L4.01157 83.6339L4.0401 83.4984L4.19214 83.5444L4.3067 83.4713L4.68484 83.5305L4.77635 83.4991L5.16967 83.1003L5.33253 83.0792L5.66001 83.1055L5.75956 83.0441L5.85416 83.0257L5.85453 82.9516L5.78356 82.8654L5.7196 82.8308L5.75859 82.7437L5.85488 82.7539L5.8667 82.6967L5.84061 82.5135L5.59744 82.4486L5.59614 82.29L5.63949 82.1355L5.78316 82.0169L5.81168 81.9068L5.89639 81.7394L6.03282 81.5507L5.98432 81.4666L5.78542 81.4189L5.61988 81.5174L5.46367 81.6676L5.35254 81.7432L5.21059 81.733L5.07507 81.6972L5.15711 81.5756L5.06349 81.5624L5.00851 81.5209L4.95429 81.3879L4.78221 81.3403L4.67374 81.2717L4.66694 81.0713L5.18031 80.9776L5.41154 80.7891L5.79248 80.8339L5.87585 80.6866L5.93731 80.2261L5.93617 80.0874L5.96886 79.93L5.91959 79.8497L5.77592 79.8193L5.65717 79.8808L5.46215 79.8089L5.38621 79.8034L5.18564 79.9589L5.08308 79.9201L5.00203 79.8557L4.88781 79.8542L4.83764 79.7853L4.8555 79.704L4.92016 79.6896L4.94074 79.621L4.91029 79.5809L4.89453 79.4737L4.94798 79.4135L5.03398 79.2405L5.13504 78.9146L5.18165 78.5769L5.13351 78.2166L5.18986 78.0776L5.36453 78.1564L5.93309 78.2419L6.02789 78.179L6.04003 78.0286L6.04326 77.7524L5.89372 77.6395L5.818 77.5477L5.73539 77.2185L5.66592 77.0696L5.75996 76.5633L5.75786 76.3042L5.69009 75.6888L5.55651 75.6311L5.60698 75.5185L5.64574 75.0577L5.5984 75.0177L5.58544 74.949L5.75275 74.8521L5.88399 74.8235L5.94323 74.7482L5.94642 74.5719L5.86478 74.5545L5.83852 74.4515L5.89905 74.314L5.85737 74.184L5.86613 74.0206L5.85164 73.8635L5.97897 73.8349L6.09295 73.6949L6.22864 73.482L6.24843 73.3045L6.20831 72.9296L6.29845 72.757L6.3295 72.72L6.58753 72.5419L6.73253 72.5051L6.70285 72.3092L6.54811 72.1488L6.57899 71.8668L6.54488 71.7213L6.41759 71.5762L6.32528 71.3583L6.20045 71.1706L6.13503 70.9493L6.19494 70.8901L6.17214 70.7916L5.96034 70.6703L5.84653 70.5311L5.75786 70.3787L5.8159 70.0994L5.55997 70.0114L5.46118 69.9147L5.21707 69.8381L5.09584 69.9234L4.84025 69.8511L4.54761 69.6904L4.34666 69.6235L4.22622 69.4069L3.66315 69.2585L3.64053 68.9897L3.42718 68.9243L3.25573 68.6684L3.3783 68.5857L3.34443 68.473L3.46464 68.2989L3.44372 68.1319L3.52405 67.961L3.67287 67.8882L3.79803 67.87L4.04122 67.9039L4.09018 67.5416L4.22392 67.4958L4.22905 67.4274L4.0837 67.4287L3.86905 67.3919L3.78684 67.3083L3.76359 67.2226L3.85496 67.1345L4.06027 67.004L4.15009 66.8973L4.22432 66.9212L4.38968 66.784L4.62623 66.9712L4.69659 66.8988L4.75294 66.6795L4.76435 66.4876L4.81666 66.3901L5.18547 66.1882L5.31315 66.0087L5.4926 65.9771L5.61307 65.8272L5.57042 65.5601L5.42581 65.5054L5.10213 65.5196L5.19553 65.31L5.26216 65.2822L5.45038 64.8932L5.49163 64.8572L5.53485 64.5506L5.56321 64.5332L5.62792 64.285L5.65911 64.109L5.57499 64.014L5.49488 63.9832L5.49771 63.6597L5.54054 63.4749L6.23187 63.4968L6.13277 63.5331L6.05965 63.6567L6.11103 63.7564L6.31408 63.8736L6.55767 63.8474L6.72588 63.8832L6.99113 63.7539L7.26688 63.6848L7.44666 63.4346L7.50051 63.2912L7.41092 63.2676L7.27978 63.0811L7.58521 62.7698L7.63335 62.6392L7.58521 62.5895L7.41417 62.5922L7.01437 62.4294L7.00083 62.0634L7.33076 61.8289L7.58255 61.723L7.96596 61.8728L8.1888 61.8642L8.55762 62.0072L8.54238 61.7826L8.57341 61.3935L9.00287 61.5451L9.13972 61.6799L9.35356 61.6698L9.5066 61.6414L9.52733 61.4256L9.49403 61.1339L9.51496 61.0021L9.63215 60.9658L9.90467 60.9708L10.0908 60.9452L10.2502 60.8512L10.3042 60.6662L10.345 60.3815L10.4378 60.2706L10.5579 60.1739L10.4634 60.4647L10.4413 60.7227L10.8603 60.8442L11.3374 60.9297L11.3539 60.622L11.411 60.4643L11.4367 60.2909L11.3775 60.1142L11.3183 60.1547L11.2879 60.0889L11.2108 60.1279L10.8898 60.0073L10.7685 59.8864L10.654 59.7241L10.486 59.7308L10.3722 59.7874L10.0689 59.6808L9.77109 59.7014L9.65535 59.5249L9.44076 59.4821L9.32316 59.4916L9.22322 59.4093L9.03563 59.4421L9.05372 59.0343L9.03887 58.8856L8.98821 58.6942L8.87821 58.712L8.87747 58.8035L8.26512 58.9239L8.1477 58.958L8.06492 59.0114L7.95476 59.0249L7.84403 58.8971L7.66303 58.4811L7.54793 58.4373L7.43167 58.434L7.09446 58.8312L6.98866 59.0321L6.78805 59.2382L6.66841 59.1763L6.6368 59.0978L6.6389 59.0107L6.49825 58.6069L6.1013 58.6357L6.0513 58.5358L5.97744 58.5594L5.8787 58.3983L5.78048 58.3393L5.24942 58.2289L5.30285 57.8724L5.26386 57.6665L5.28382 57.6033L5.41341 57.5882L5.3959 57.4624L5.47131 57.2015L5.58089 57.0031L5.52091 56.9635L5.43913 56.5966L5.37613 56.5642L5.39211 56.3394L5.47811 56.1243L5.52553 55.7576L5.5358 55.5865L5.50931 55.498L5.61592 55.4284L5.6968 55.3075L6.03833 55.182L6.10303 55.2471L6.21591 55.2064L6.27599 55.1114L6.3603 55.1909L6.48155 55.1126L6.54163 54.9619L6.60502 54.8829L6.88363 54.9207L6.98389 54.7853L7.31098 54.6842L7.43509 54.6074L7.59549 54.6551L7.72944 54.6496L7.84818 54.4514L8.04172 54.4268L8.11064 54.259L8.2948 54.1103L8.3928 53.6876L8.10585 53.7585L7.66991 53.5299L7.60807 53.4245L7.43621 53.3755L7.3224 53.3019L6.98083 53.2905L6.85963 53.2281L6.92279 52.9703L7.01909 52.7594L7.19797 52.6032L7.39818 52.5045L7.39626 52.1284L7.83812 52.142L7.86494 52.3723L7.98824 52.3469L8.1026 52.037L8.22405 51.8344L8.3308 51.7509L8.29805 51.5736L8.39493 51.5629L8.42972 51.1506L8.56216 50.9848L8.68642 51.0241L8.77493 50.9117L9.06131 51.0602L9.15931 51.0434L9.1865 50.8789L9.05461 50.8185L8.87311 50.4947L8.81983 50.349L8.87196 50.1041L9.23673 50.2174L9.35281 50.1722L9.65535 50.2374L9.71459 49.9735L9.70753 49.7664L9.72904 49.561L9.66091 49.3614L9.74102 49.2032L9.84756 49.2223L9.96177 49.1025L9.96498 48.97L9.83409 48.8727L9.98324 48.743L10.0356 48.9776L10.1301 49.0526L10.2549 49.0749L10.3391 49.1557L10.4247 48.9861L10.3102 48.8842L10.3457 48.7499L10.54 48.7099L10.5737 48.5843L10.4247 48.5573L10.3296 48.4824L10.4612 48.359L10.4835 48.1738L10.4329 48.1375L10.3937 47.9913L10.2967 47.9241L10.1952 47.9082L10.0582 47.9431L9.96022 48.0082L9.77699 47.8635L9.83805 47.7934L9.79792 47.7064L9.63727 47.6708L9.49289 47.5616L9.40819 47.3744L9.22912 47.4309L9.04852 47.5694L8.92391 47.4908L8.86703 47.2058L8.60553 47.0579L8.18992 46.947L8.07255 46.9601L8.04628 46.6551L7.94675 46.6289L7.88871 46.4855L7.93079 46.24L8.16219 46.2764L8.2564 46.0536L8.42727 45.9252L8.67938 45.9109L8.98747 45.8258L9.17855 45.7264L9.25597 45.3507L9.15739 44.8128L9.07998 44.643L9.18633 44.0467L8.97151 44.0065L8.72712 43.7911L8.68165 43.6382L8.55532 43.3726L8.49422 43.1188L8.35188 43.0984L8.35172 42.8356L8.60309 42.8512L8.8668 42.433L8.76974 42.2838L8.66243 42.0262L8.55682 41.8407L8.78044 41.4488L9.04092 41.3133L9.21771 41.0363L9.31724 40.9098L9.18819 40.8297L8.83826 40.7834L8.60172 40.6897L8.60934 40.6285L8.51004 40.5997L8.26871 40.7827L7.99376 40.5778L8.12028 40.4047L8.49935 40.1593L8.4168 39.9164L8.07863 39.5864L7.80004 39.5198L7.42933 39.383L7.23413 39.1381L7.28147 38.7552L7.50852 38.4787L7.78427 38.2438L7.9774 38.1816L8.09292 37.5939L8.13335 37.5917L8.15736 37.4923L8.16209 37.4702L8.13958 37.3592L7.68785 37.2628L7.6748 37.1888L7.53727 37.1697L7.4685 37.1428L7.45071 36.9079L7.44479 36.8299L7.44124 36.7806L7.55862 36.7829L7.69733 36.7335L7.79811 36.7347L7.9475 36.7829L8.01746 36.812L8.07199 36.8434L8.18344 36.8827L8.21783 36.8961L8.42412 36.9073L8.44427 36.8423L8.48222 36.8008L8.60078 36.8221L8.74898 36.7717L8.81893 36.7414L8.85054 36.7259L8.88059 36.7111L8.91734 36.6281L8.84977 36.6057L8.86399 36.5104L8.81064 36.423L8.64346 36.4095L8.46206 36.3837L8.38144 36.3579L8.08741 36.3703L8.01746 36.3467L7.99374 36.2649L7.97592 36.2448L7.95698 36.2234L7.96529 36.1584L8.04353 36.1539L8.15262 36.1696L8.26169 36.1707L8.29133 36.1315L8.4099 36.1292L8.54454 36.1133L8.56165 36.1113L8.55814 36.0743L8.55336 36.0239L8.55099 35.9857L8.61382 35.8804L8.64939 35.6932L9.02998 35.7537L9.12957 35.942L9.28772 35.9523L9.33587 35.9555L9.32164 35.8288L9.35247 35.7357L9.36432 35.6046L9.34061 35.5362L9.34892 35.469L9.09282 35.4555L8.94106 35.2728L8.95119 35.1275L8.95529 35.0688L9.08215 35.0072L9.15921 34.9522L9.24102 34.8693L9.25518 34.7781L9.25998 34.7472L9.23627 34.6485L9.16632 34.6373L9.09875 34.7079L9.07461 34.7193L9.05132 34.7303L9.01338 34.6317L9.062 34.5409L9.12602 34.4636L9.11308 34.2958L9.11297 34.2955L9.11304 34.2953L9.11348 34.2942L9.16632 34.1643L9.17344 34.1565L9.19241 34.1543L9.51845 34.1464L9.51784 34.2125L9.51727 34.2719H9.54471H9.57062L9.57893 34.1733L9.64057 34.1722L9.64769 34.1128L9.8125 34.096L9.97611 34.0635L9.95774 34.1319L9.95596 34.1385L9.98678 34.2036L10.0788 34.2445L10.1066 34.2569L10.1101 34.2585L10.1824 34.1946L10.2234 34.0892L10.2334 34.0635L10.2749 33.9862L10.3508 33.975L10.4658 33.9996L10.4551 34.0512L10.5535 34.0668L10.5583 34.1072L10.5338 34.1555L10.5363 34.1555L10.4302 34.3896L10.4428 34.4015L10.5013 34.4568L10.5523 34.5229L10.6436 34.5655L10.7574 34.5644L10.7693 34.5554L10.8286 34.5151L10.9388 34.431L10.9969 34.3873L11.1629 34.2909L11.3538 34.264L11.4344 34.2293L11.5494 34.1688L11.5874 34.1397L11.6633 34.0724L11.6905 34.0601L11.7297 34.0433L11.7723 34.0265L11.7949 34.0186L11.9561 33.9962L12.0818 34.0052L12.3237 34.0466L12.4209 34.0254L12.6413 33.9868L12.7031 33.9761L12.6888 33.8147L12.6876 33.6803L12.71 33.6183L12.722 33.585L12.7434 33.5335L12.7646 33.4986L12.8607 33.3408L12.8856 33.2937L12.9141 33.2545L13.0054 33.1906L13.0125 33.0752L12.9473 32.8411L12.9335 32.8084L12.8987 32.7257L12.8977 32.6519L12.8951 32.4603L12.8916 32.3964L12.8679 32.3102L12.7588 32.1298L12.6082 31.9182L12.5371 31.7916L12.492 31.665L12.4937 31.6491L12.5074 31.515L12.5639 31.4863L12.5999 31.468L12.6521 31.3728L12.6272 31.3291L12.5406 31.3302L12.5048 31.2767L12.5051 31.2742L12.5157 31.2485L12.658 31.0245L12.677 31.0066L12.7244 30.9641L12.7434 30.9506L12.8062 30.9237L12.8216 30.917L12.837 30.8868L12.8489 30.8521L12.9485 30.8476L13.0184 30.7804L13.0327 30.6673L13.0232 30.5677L13.0433 30.5196L13.0694 30.449L13.0813 30.4322L13.1251 30.3606L13.137 30.3359L13.1809 30.3057L13.2259 30.2732L13.2473 30.2542L13.3065 30.2329L13.3426 30.2203L13.3575 30.215L13.4441 30.2475L13.4737 30.2956L13.5283 30.3751L13.5413 30.3919L13.5437 30.4143L13.5579 30.4815L13.5532 30.5106L13.546 30.5755L13.5413 30.6102L13.5508 30.6461L13.5567 30.6841L13.5594 30.6856L13.6397 30.7312L13.7262 30.7838L13.7595 30.795L13.8223 30.8073L13.8946 30.8263L13.9409 30.8442L13.9539 30.8162L13.9729 30.7547L13.9741 30.7032V30.664L13.993 30.5431L14.1175 30.458L14.1317 30.4468L14.1365 30.43L14.1638 30.3371L14.1768 30.3203L14.2491 30.2363L14.3179 30.1646L14.3262 30.1389L14.357 30.046L14.3629 30.0236L14.3641 29.999L14.3759 29.7538V29.7448L14.3902 29.7236L14.4162 29.6855L14.4364 29.6553L14.4791 29.6128L14.568 29.4337L14.6391 29.2714L14.6783 29.1807L14.6854 29.1482L14.6984 29.0844L14.7138 29.0151L14.7364 28.9714L14.7992 28.8427L14.8288 28.77L14.8526 28.7319L14.8893 28.6782L14.9178 28.6424L14.9273 28.6301L14.9284 28.611L14.9355 28.47L14.9391 28.46L14.964 28.4152L14.9924 28.3447L15.0173 28.2574L15.0446 28.1724L15.0529 28.1355L15.0564 28.1243L15.0636 28.112L15.092 28.084L15.1157 28.0527L15.1335 28.0347L15.1383 28.0258L15.1454 28.009L15.1525 27.9956L15.1726 27.9206L15.2035 27.8143L15.2058 27.8009L15.213 27.7886L15.2331 27.7785L15.3185 27.7271L15.3469 27.7181L15.3932 27.708L15.4726 27.6924L15.5034 27.6879L15.6208 27.698L15.6493 27.7002L15.6694 27.6935L15.6943 27.6756L15.7251 27.6588L15.7536 27.6342L15.7963 27.5883L15.8252 27.5667L15.8473 27.5424L15.8568 27.5377L15.8833 27.5245L15.9125 27.51L15.9338 27.4977L16.0109 27.4753L16.0405 27.4664L16.0624 27.4675L16.0856 27.4686L16.1472 27.4698L16.1674 27.472L16.1935 27.4619L16.2907 27.4351L16.4199 27.4026L16.4685 27.3903L16.5254 27.3836L16.5515 27.3803L16.5918 27.3635L16.7068 27.3053L16.81 27.255L16.8586 27.2438L16.9297 27.2359L17.0199 27.2393L17.0299 27.239L17.0519 27.2383L17.1597 27.2562L17.3696 27.3155L17.5 27.3491L17.5202 27.3524L17.5451 27.3468L17.6269 27.3278L17.7324 27.3021L17.7846 27.2875L17.8163 27.2643L17.8699 27.2249L17.8972 27.1298L17.9043 27.1052L17.8759 26.8031L17.8462 26.8177L17.7822 26.8031L17.6779 26.7953L17.5724 26.7908L17.5474 26.7271L17.5453 26.7276L17.5468 26.7251L17.5966 26.5909L17.5059 26.5623L17.4223 26.5254L17.4231 26.5246L17.4156 26.5155L17.4223 26.4882L17.4253 26.461L17.4171 26.419L17.4134 26.3959L17.4082 26.3848L17.389 26.3785L17.3126 26.3526L17.2304 26.347L17.1637 26.3407L17.0466 26.3176L16.9955 26.2575L16.8354 26.253L16.7991 26.252L16.7987 26.2498L16.785 26.1723L16.7798 26.1178L16.7894 25.9521L16.7917 25.9018L16.7635 25.8696H16.6916H16.5619L16.4745 25.8472L16.4659 25.8201L16.4449 25.7536L16.4197 25.6257L16.3574 25.4964L16.3396 25.4593L16.3293 25.3098L16.2687 25.2775L16.2426 25.2636L16.1381 25.2238L16.0986 25.2078L16.0899 25.2042L16.0841 25.2057L16.0284 25.2196L16.0158 25.2238L15.9513 25.2525L15.9054 25.2741L15.8676 25.2881L15.7913 25.3126L15.7476 25.3286H15.5994L15.4704 25.2664L15.3259 25.1924L15.3246 25.1903L15.2926 25.1371L15.2982 25.1114L15.3076 25.0689L15.3466 24.8925L15.3496 24.8786L15.3903 24.7884L15.4067 24.7521L15.4415 24.7339L15.513 24.7091L15.5178 24.7074L15.5438 24.5746L15.5521 24.5488L15.5563 24.5395L15.5972 24.4104L15.6612 24.2209V24.2008L15.6523 24.1723L15.5677 24.1544L15.5652 24.1538L15.4772 24.1523L15.4656 24.1522L15.3447 24.1488L15.2326 24.1639L15.2129 24.1759L15.1722 24.2008L15.1312 24.2226L15.0352 24.3182L14.9961 24.3635L14.6031 24.2494L14.6125 24.2309L14.7026 24.0533L14.6902 23.9895L14.6742 23.9761L14.6279 23.956L14.6173 23.9443L14.6475 23.795L14.7258 23.4932L14.6742 23.4463L14.6488 23.4417L14.5337 23.4211L14.2936 23.3776L14.2553 23.3684L14.1727 23.3524H14.0179L14.0152 23.3551L13.9593 23.4094L13.9432 23.5117L13.9326 23.5385L13.8917 23.624L13.7974 23.5871L13.6765 23.5452L13.5058 23.4614V23.4517V23.3608L13.5075 23.3138L13.5289 23.2065L13.5467 23.0875L13.5449 23.0356V22.9685L13.5395 22.9417L13.5218 22.8964L13.4951 22.8478L13.4755 22.8025L13.4595 22.7221L13.4435 22.6383L13.4417 22.5209V22.4338L13.4364 22.4036L13.4204 22.3852L13.3937 22.3768L13.3635 22.3651L13.3546 22.3516L13.3421 22.3332L13.2746 22.2092L13.2461 22.1321V22.0751L13.2621 21.9963L13.3066 21.8656L13.3279 21.7969L13.3315 21.6393L13.3244 21.517L13.3136 21.4395L13.3083 21.4014L13.3795 21.4165L13.3901 21.4232L13.4542 21.4684L13.5716 21.5421L13.5876 21.5455L13.6 21.5522L13.7298 21.5723L13.8205 21.574L13.9077 21.5706L13.929 21.574L13.9575 21.5941L14.0037 21.6209L14.0677 21.6762L14.1546 21.6839L14.2385 21.6913L14.21 21.6393L14.1424 21.5019L14.146 21.4818L14.1549 21.4148L14.1602 21.393L14.1976 21.3344L14.2065 21.274L14.196 21.2728L14.1993 21.2706L14.1264 21.155L14.1436 21.1109L14.146 21.1047L14.1649 21.0968L14.178 21.0913L14.2385 21.0511L14.2634 21.021L14.2847 20.9606L14.3274 20.783L14.3268 20.7698L14.3274 20.7697L14.3452 20.7245L14.3523 20.696L14.3398 20.6658L14.3292 20.6373L14.3327 20.4933L14.3398 20.4581L14.3754 20.4112L14.4186 20.3864L14.475 20.3542L14.5817 20.3425L14.6991 20.381L14.8093 20.4865L14.9392 20.6658L14.9356 20.7261L14.973 20.7998L15.0797 20.8032L15.1526 20.763L15.27 20.7613L15.3372 20.7783L15.3696 20.7865L15.4354 20.758L15.4727 20.6759L15.478 20.6507L15.462 20.5938L15.4549 20.5737L15.4211 20.5385L15.3741 20.4542L15.3785 20.453V20.381L15.3927 20.3224L15.4069 20.2202L15.4194 20.1783L15.4033 20.1213L15.398 20.0828L15.3322 20.0242L15.2735 20.0007L15.261 19.9977L15.2629 19.9974L15.2042 19.9237L15.1882 19.8902L15.1793 19.8483L15.1508 19.7411L15.1312 19.6792L15.1206 19.6507L15.0761 19.6272L15.0655 19.5837L15.08 19.5547L15.0957 19.5234L15.1537 19.525L15.1539 19.5249L15.1828 19.5234L15.2343 19.4999L15.3659 19.386L15.3926 19.3274L15.4495 19.2102L15.5064 19.1231L15.526 19.0042L15.5367 18.9104L15.5491 18.8367L15.5616 18.7982L15.59 18.768L15.638 18.7362L15.6487 18.7044V18.6809L15.6345 18.6458L15.5989 18.557L15.658 18.4836L15.6783 18.4583L15.6932 18.4398L15.6772 18.3979L15.6505 18.3527L15.5954 18.3192L15.5171 18.2841L15.4709 18.2556L15.4531 18.2305L15.4388 18.2004L15.4442 18.1736L15.4602 18.1166V18.0513V17.9827L15.5758 17.8571L15.6096 17.8253L15.6114 17.8052L15.6416 17.7332L15.6558 17.6914L15.6754 17.6411L15.6949 17.601L15.7341 17.5256L15.7536 17.4787L15.7643 17.4436L15.8088 17.3716L15.8657 17.308V17.2812L15.8675 17.2025L15.8746 17.169L15.8941 17.092L15.9137 17.015L15.9226 16.9631L15.9261 16.9313L16.0097 16.6083L16.0506 16.6233L16.0862 16.5999L16.0844 16.5664L16.0862 16.5601L16.0915 16.5413L16.1093 16.5095L16.1271 16.4978L16.4028 16.4426L16.6802 16.5497L16.7424 16.5597L16.7477 16.5605L16.7887 16.5664L16.8189 16.5111L16.8349 16.4576L16.8492 16.4007L16.9142 16.2136L16.9145 16.2126L16.915 16.2115L16.9133 16.2106L16.7905 16.0207L16.6944 16.0022L16.6091 15.9955L16.5308 15.9989L16.4348 16.0089L16.3939 16.014L16.3494 16.0073L16.2623 15.9972L16.2249 15.9822L16.168 15.9604L16.1413 15.9554L16.0453 15.9387L15.9457 15.9303L15.9101 15.8985L15.8923 15.8784L15.8657 15.7964V15.7044L15.8621 15.624L15.855 15.5789L15.8426 15.542L15.8265 15.5002L15.8194 15.4584L15.8165 15.4211L15.8141 15.3898L15.871 15.363L15.9913 15.3599L15.9991 15.3597L16.0593 15.3129L16.0809 15.2961L16.089 15.29L16.1072 15.2765L16.1324 15.2576L16.1858 15.2392L16.369 15.1874L16.4349 15.1747L16.4561 15.1706L16.4775 15.1623L16.5664 14.9933L16.5946 14.9924L16.6766 14.9899L16.7691 15.0351L16.8652 15.0669L16.915 15.082L16.9968 15.0602L17.0501 15.0134L17.0732 14.9732L17.0946 14.9581L17.1248 14.9381L17.1622 14.9197L17.228 14.8728L17.2795 14.8343L17.2946 14.8249L17.3009 14.821L17.356 14.744L17.3978 14.6986L17.4592 14.6319L17.5499 14.6219H17.6085L17.6157 14.6222L17.6601 14.6236L17.7775 14.4563L17.7937 14.4495L17.8451 14.4279L17.8771 14.4228L17.9731 14.4463L18.0656 14.4898L18.2595 14.5734L18.3039 14.6403L18.3181 14.6587L18.3306 14.7156L18.3475 14.7747L18.3555 14.8026L18.3662 14.8193L18.4 14.8444L18.448 14.8679L18.5727 14.9322L18.5778 14.9348L18.6756 14.9331L18.7414 15.0552L18.8517 15.2343L18.8784 15.2627L18.8997 15.2728L18.9957 15.3062L19.009 15.3223L19.0384 15.3315L19.106 15.4066L19.1576 15.4568L19.1682 15.4819L19.186 15.497L19.2038 15.5054L19.2536 15.5171L19.3176 15.5338L19.4066 15.5656L19.5062 15.6041L19.5417 15.6258L19.5595 15.6509L19.5737 15.6844L19.5755 15.7011L19.5648 15.7831L19.547 15.9019L19.5542 15.9421L19.5702 15.9823L19.5826 16.0007L19.6111 16.0124L19.8334 16.071L20.0156 16.123L20.0735 16.1396L20.1615 16.1727L20.1891 16.1831L20.2246 16.2015L20.246 16.2182L20.2567 16.2551L20.2585 16.257L20.2638 16.3086L20.262 16.3622L20.2371 16.4224L20.1695 16.5429L20.1162 16.64L20.1073 16.6752L20.1108 16.7204L20.1375 16.7723L20.1837 16.8409L20.2246 16.8945L20.3367 16.9514L20.4541 17.01L20.5394 17.0468L20.5732 17.0551L20.591 17.0501L20.6017 17.0384L20.6159 17.02L20.6266 17.0016L20.6309 16.989L20.6313 16.9891L20.6426 16.9597L20.696 16.8945L20.7475 16.8526L20.7849 16.8225L20.8382 16.794L20.8827 16.7806L20.945 16.7723L20.9841 16.7672L21.0001 16.7572L21.0161 16.7371L21.0481 16.7103L21.1192 16.6517L21.1566 16.6283L21.1886 16.6199L21.2082 16.6183L21.2224 16.64L21.2361 16.6618L21.2455 16.6768L21.2615 16.7204L21.2722 16.7806L21.2704 16.8426L21.2669 16.8794L21.2704 16.8978L21.2793 16.9145L21.2953 16.9262L21.4287 16.9932L21.4518 16.9999L21.4696 16.9899L21.5212 16.953L21.5745 16.9129L21.5976 16.9078H21.6243L21.8466 16.9112L21.9498 16.9028L22.0014 16.8878L22.0245 16.876L22.0405 16.8593L22.044 16.842L22.048 16.8419L22.0636 16.8057L22.076 16.7907L22.0992 16.7723L22.1134 16.7689L22.1347 16.7823L22.213 16.8158L22.2373 16.8355L22.2521 16.8476L22.2788 16.8744L22.2966 16.9028L22.309 16.9497L22.3179 16.9597L22.478 17.0451L22.5491 17.1003L22.6576 17.1991L22.7234 17.2728L22.759 17.2862L22.791 17.2996L22.8354 17.3046L22.8799 17.3012L22.9208 17.2962L22.9493 17.2778L22.9994 17.2231L23.0168 17.2041L23.0524 17.1723L23.0844 17.1472L23.1164 17.1422L23.2729 17.1188L23.3547 17.1121L23.3609 17.1118L23.4792 17.1054L23.5237 17.0954L23.5522 17.0803L23.5717 17.0602L23.5924 17.0294L23.5931 17.0284L23.6429 16.9615L23.6785 16.9163L23.7087 16.8828L23.714 16.8426L23.7034 16.7974L23.6785 16.7573L23.6802 16.7238L23.6767 16.692L23.6536 16.6669L23.6287 16.6401L23.618 16.6166V16.5715V16.543L23.6358 16.5012L23.65 16.461V16.4225L23.6376 16.3723L23.6381 16.3543L23.6286 16.3422L23.6215 16.302L23.6322 16.2735L23.6482 16.2551L23.6571 16.23L23.6553 16.2032L23.6571 16.1564L23.6411 16.0945V16.0761L23.6464 16.0576L23.65 16.0258L23.6642 15.994L23.6891 15.9572L23.7336 15.902L23.7709 15.8685L23.7816 15.8484L23.7887 15.8267L23.7994 15.7648L23.8136 15.7146L23.826 15.6711L23.8634 15.5673L23.9078 15.4669L23.9523 15.3766L23.9719 15.3297L23.9879 15.2712L23.995 15.2076L24.0039 15.1758L24.0181 15.1507L24.0324 15.1155L24.0359 15.0871L24.0288 15.057L24.0128 15.0285L23.9772 14.985L23.9594 14.9566V14.9265V14.898L23.9754 14.8763L23.9968 14.8378L24.0057 14.8211L23.9701 14.7826L23.9759 14.7813L23.9669 14.7786L23.9029 14.7602L23.8584 14.7535L23.8104 14.7452L23.7909 14.7351L23.7571 14.7184L23.6753 14.6682L23.6504 14.6531L23.6112 14.608L23.5632 14.5695L23.5419 14.4156L23.4832 14.158L23.4796 14.1396L23.4832 14.0191L23.5188 13.9924L23.6024 13.9539L23.629 13.9221L23.6415 13.8887V13.8552L23.6166 13.8151L23.6041 13.7933L23.6184 13.7515L23.6859 13.5809L23.7411 13.4555L23.8478 13.1762L23.8638 13.1477V13.131L23.8318 13.0758L23.7588 12.9788L23.6915 12.9058L23.6893 12.9046L23.6746 12.8872L23.6271 12.7998L23.6167 12.7231L23.6366 12.6981L23.7153 12.6914L23.7457 12.6968L23.7865 12.7021L23.8173 12.7199L23.8699 12.7481L23.8799 12.7534L23.906 12.7672L23.9477 12.8167L23.9624 12.8328L24.0478 12.8435L24.0959 12.8091L24.1332 12.7824L24.172 12.7186L24.2114 12.6027L24.228 12.5786L24.2418 12.5608L24.2773 12.5162L24.3238 12.4564L24.3717 12.4118L24.4628 12.3249L24.4751 12.3151L24.5348 12.2776L24.6069 12.2335L24.6766 12.192L24.7136 12.1911L24.7492 12.213L24.7687 12.225L24.7995 12.2366L24.8346 12.2495L24.8417 12.2531L24.8498 12.2558L24.8697 12.254L24.8972 12.2553L24.9157 12.258L24.9579 12.2651L25.0432 12.2932L25.094 12.3093L25.1115 12.3133L25.1191 12.3178L25.1229 12.316L25.1462 12.2888L25.1637 12.2839L25.2026 12.2692L25.2382 12.2745L25.2714 12.2799L25.2891 12.2715L25.3235 12.2553L25.3425 12.2477L25.3468 12.2446L25.3629 12.1822L25.3667 12.1697L25.3719 12.1532L25.3885 12.1136L25.4411 12.1002L25.4767 12.0904L25.4895 12.0872L25.5037 12.0765L25.5412 12.0471L25.5811 12.0137L25.5915 12.0039L25.6318 11.9767L25.6474 11.966L25.6607 11.9597L25.6735 11.9562L25.7157 11.9406L25.7238 11.9365L25.7281 11.9339L25.7314 11.9263L25.7423 11.9098L25.7541 11.892L25.7598 11.8839L25.7636 11.8657L25.7788 11.8126L25.7878 11.7783L25.8466 11.7841L25.8561 11.7827L25.8793 11.7801L25.8812 11.7774L25.8846 11.7426L25.8922 11.6913L25.8955 11.6833L25.9135 11.653L25.9334 11.6187L25.9695 11.6022L26.1008 11.6588L26.1631 11.6854L26.1642 11.6855L26.1662 11.6869L26.2459 11.7172L26.2559 11.7212L26.2729 11.7337L26.2929 11.7471L26.3256 11.7703L26.3441 11.7752L26.3522 11.7769L26.3583 11.7792L26.3835 11.7716L26.3963 11.7676L26.4062 11.7649L26.4066 11.7646L26.412 11.7596L26.4295 11.7471L26.4461 11.7324L26.4513 11.7306L26.4826 11.7248L26.5282 11.7177L26.559 11.7141L26.5912 11.7114L26.6102 11.711L26.6197 11.7083L26.6349 11.702L26.6595 11.6909L26.6847 11.6789L26.6918 11.6766L26.7017 11.6677L26.7364 11.6396L26.7558 11.6222L26.7776 11.6044L26.7899 11.5924L26.8203 11.4689L26.8582 11.3L26.8791 11.143L26.8891 11.0922L26.9104 11.0093L26.9114 11.0058L26.8886 10.938L26.8844 10.9304L26.8099 10.8146L26.7781 10.7566L26.7151 10.6626L26.7094 10.6541L26.6776 10.6153L26.6582 10.5917L26.6292 10.4295L26.6074 10.2735L26.5723 10.216L26.5998 10.1826L26.6017 10.1799L26.6003 10.1706L26.5918 10.122L26.5903 10.118L26.5775 10.093L26.5496 10.0382L26.5254 9.99008L26.4827 9.8974L26.4694 9.87022L26.4595 9.84883L26.4917 9.81942L26.4983 9.81362L26.5031 9.80472L26.5202 9.76061L26.5206 9.75436L26.5253 9.68485L26.5268 9.67504L26.5248 9.65099L26.5182 9.62069L26.5158 9.59886L26.5068 9.51464L26.476 9.49014L26.4637 9.48747L26.4215 9.47989L26.3954 9.47543L26.3536 9.47366L26.2797 9.46964L26.2645 9.46296L26.2512 9.45539L26.1986 9.42732L26.1943 9.42419L26.1848 9.40861L26.1511 9.35603L26.1127 9.29499L26.0947 9.26335L26.0525 9.18228L26.0506 9.14307L26.0482 9.10609L26.0487 9.09762L26.0657 9.01386L26.0681 9.00629L26.0733 8.99916L26.0961 8.97377L26.0984 8.97065L26.1032 8.97021L26.1321 8.97065L26.1928 8.98848L26.2388 9.00228L26.2948 9.01253L26.3488 9.02233L26.3669 9.02456L26.4707 9.03347L26.5589 9.03391L26.5784 8.99961L26.5969 8.95461L26.6054 8.93946L26.6154 8.87664L26.6215 8.83834L26.6804 8.81874L26.7202 8.80448L26.7377 8.79736L26.7501 8.79513L26.7553 8.78979L26.7747 8.76572L26.778 8.75905L26.788 8.72073L26.7918 8.71004L26.7928 8.70425L26.7705 8.63386L26.7354 8.5764L26.7264 8.55769L26.7421 8.47617L26.7643 8.42184L26.7852 8.36037L26.7928 8.34122V8.32562V8.27261L26.7952 8.18086L26.7985 8.12785L26.8028 7.98488L26.8042 7.9007L26.8046 7.85839L26.7543 7.78446L26.7164 7.75462L26.6495 7.6994L26.5993 7.62413L26.5708 7.5845L26.568 7.5796L26.521 7.45356L26.5125 7.40191L26.5063 7.37429L26.4902 7.283L26.4968 7.14942L26.4992 7.05768L26.5011 7.04076L26.4798 6.9624L26.4712 6.93167L26.4219 6.88358L26.4015 6.87067L26.3645 6.84795L26.337 6.82836L26.2497 6.75624L26.2165 6.72908L26.1909 6.67298L26.1558 6.60797L26.089 6.61197L25.9747 6.55811L25.9803 6.50351L25.9809 6.49844L25.9657 6.45081L25.9573 6.447L25.952 6.44457L25.9155 6.43299L25.9074 6.43078L25.8666 6.4232L25.814 6.41386L25.7732 6.40628L25.8329 6.32703L25.8453 6.30967L25.859 6.27762L25.8709 6.24468L25.8932 6.20149L25.9425 6.12047L25.9695 6.08396L25.9814 6.0666L26.0008 6.02876L26.0288 5.97534L26.034 5.96376L26.0686 5.85826L26.0848 5.76701L26.0876 5.76121L26.1108 5.72027L26.2636 5.77636L26.3489 5.80573L26.3632 5.80994L26.3745 5.81331L26.4182 5.82888L26.55 5.84936L26.568 5.85158L26.6197 5.85024L26.678 5.84713L26.6999 5.83169L26.7473 5.79816L26.7653 5.78704L26.8118 5.76789L26.845 5.75365L26.9702 5.74475L27.028 5.6949L27.066 5.58317L27.075 5.56447L27.1163 5.44429L27.2049 5.37708L27.2846 5.34058L27.3211 5.32278L27.6066 5.26937L27.7195 5.22397L27.7584 5.18169L27.7484 5.09223L27.7337 5.04727L27.7214 5.01523L27.7024 4.93379V4.86925L27.71 4.83854L27.7181 4.79849L27.7171 4.68545L27.7242 4.65697L27.7309 4.63516L27.7337 4.61736L27.7911 4.58844L27.8731 4.5831L27.9409 4.57331L27.949 4.56041L27.9661 4.53637L27.9846 4.47496L28.0026 4.414L28.0306 4.31922L28.0495 4.26448L28.0566 4.24357L28.0657 4.22577L28.0927 4.16525L28.1174 4.09317L28.1231 4.04601L28.1382 3.91297L28.1406 3.9023L28.152 3.86714L28.1634 3.83777L28.1747 3.79818L28.2298 3.70919L28.2658 3.65403L28.3052 3.59307L28.3062 3.48674L28.3057 3.46584L28.2915 3.40845L28.2607 3.31591L28.2465 3.28655L28.2133 3.21982L28.1687 3.05256L28.1473 2.94624L28.126 2.89642L28.0525 2.85372L27.9689 2.80323L27.8993 2.76121L27.8765 2.74831L27.7964 2.7056L27.7385 2.69849L27.6982 2.69419L27.6968 2.6927L27.6759 2.69047L27.6517 2.68617L27.5688 2.67135L27.5427 2.64244L27.5545 2.56238L27.5621 2.47075L27.5953 2.34755L27.6001 2.32265L27.6266 2.16921V2.11228L27.6262 2.09761L27.5933 2.07648L27.5479 2.04735L27.4498 2.02779L27.362 2.01L27.243 1.9851H27.2335L27.1273 1.9802L27.1187 1.97886L27.0852 1.98245L27.0149 1.98998L26.8925 2.01489L26.7991 2.0438L26.7654 2.03935L26.7251 2.03401L26.7208 2.03313L26.7114 2.03L26.636 1.99888L26.5425 1.93795L26.507 1.91037L26.4889 1.89793L26.4814 1.89171L26.3936 1.85745L26.3846 1.84812L26.3424 1.80765L26.3277 1.75429L26.3237 1.73672L26.3186 1.73289L26.3364 1.6395L26.3542 1.61282L26.4253 1.54279L26.4929 1.48277L26.5427 1.40605L26.5818 1.31935L26.6281 1.18262L26.685 1.01256L26.7703 0.679113L26.8877 0.225681L26.9091 0.19234L26.9695 0.172337L27.1296 0.142334L27.2968 0.148997L27.3679 0.165675L27.4497 0.189001L27.4923 0.252843L27.5031 0.269024L27.5457 0.339032L27.5493 0.395714L27.5208 0.439057L27.4639 0.49574L27.3679 0.565748L27.3145 0.62243L27.3181 0.650899L27.3288 0.735795L27.4035 0.859175L27.4921 0.922307L27.4924 0.922535L27.6382 0.952538L27.873 0.979217L27.9583 0.989218H28.1113L28.1682 0.969216L28.2286 0.97254L28.3176 1.0059L28.3183 1.00628L28.3673 1.03256L28.4278 1.0459L28.4394 1.04525L28.5452 1.03924L28.6946 1.04258L28.7337 1.04924L28.7693 1.08258L28.7725 1.09559L28.7799 1.12594L28.7586 1.1993L28.7479 1.27266L28.7515 1.34937L28.7649 1.35203L28.7479 1.37938L28.7977 1.70622L28.8404 1.86964L28.8617 1.91966L28.9364 1.95302L28.9861 1.98588L28.9969 1.99305L29.068 2.06309L29.1321 2.12312L29.2267 2.21191L29.2423 2.22653L29.4664 2.35995L29.5624 2.42334L29.6158 2.48671L29.7545 2.5701L29.8754 2.61681L29.9786 2.65351L30.1102 2.69354L30.2454 2.69688L30.3201 2.70022L30.4623 2.71022L30.5406 2.71356L30.6295 2.6802L30.7309 2.65095L30.7682 2.64017L30.8607 2.6068L30.9409 2.59613L31.0239 2.61838L31.076 2.64729L31.0831 2.65894L31.1163 2.714L31.1804 2.80074L31.2491 2.87858L31.28 2.95198L31.2965 2.99424L31.3084 3.06095L31.3345 3.12546L31.389 3.1655L31.4222 3.18551L31.5123 3.2053L31.5337 3.20999L31.6333 3.19442L31.721 3.16773L31.7779 3.14771L31.8087 3.11657L31.8609 3.07431L31.8704 2.98312L31.8846 2.81186L31.9273 2.71178L31.9534 2.66286L32.015 2.60725L32.0672 2.59168L32.1194 2.57834L32.1601 2.57775L32.2711 2.57611H32.366L32.4656 2.56722L32.5043 2.55743L32.5889 2.53608L32.7051 2.48939L32.8047 2.45825L32.8758 2.44714L32.9612 2.45158L33.056 2.4716L33.1532 2.5094L33.2694 2.56944L33.3501 2.59168L33.4496 2.60947L33.5824 2.62282L33.7034 2.61392L33.8907 2.58724L34.0093 2.58501L34.1966 2.58279L34.3057 2.59836L34.3507 2.61392L34.4029 2.62949L34.4527 2.65173L34.5309 2.714L34.6187 2.78517L34.678 2.8074L34.7633 2.84077L34.8226 2.84745L35.0028 2.87636L35.0906 2.88525L35.1854 2.8897H35.266L35.3087 2.89638L35.3467 2.90304L35.3751 2.92973L35.47 2.99424L35.4866 3.01426L35.5245 3.0276L35.5577 3.03872L35.6217 3.04317L35.6905 3.04538L35.7166 3.04317H35.745L35.7948 3.06542L36.0628 3.1655L36.1244 3.1833L36.2596 3.21444L36.371 3.2389L36.4351 3.24558L36.4754 3.2567L36.5086 3.27227L36.5868 3.29673L36.6224 3.32564L36.6746 3.3568L36.7078 3.3946L36.7291 3.42574L36.7461 3.46526L36.7742 3.5303L36.7955 3.58145L36.8097 3.67712L36.8382 3.70158L36.8785 3.75052L36.9283 3.79501L36.9947 3.82394L37.0085 3.82658L37.099 3.84395L37.2067 3.86012L37.2176 3.86175H37.2555L37.2639 3.84515L37.2792 3.81503L37.412 3.63039L37.4642 3.56144L37.5567 3.50137H37.6278L37.7227 3.49471L37.7914 3.5036L37.8388 3.53251L37.9195 3.60593L37.9291 3.61691L37.974 3.66821L38.0736 3.7216H38.0926L38.1779 3.71493L38.2017 3.70603L38.2407 3.66939L38.2491 3.66155L38.3344 3.58368L38.3842 3.55031L38.434 3.52362L38.5597 3.51694L38.6546 3.52362L38.6831 3.52824L38.7815 3.56161L38.8278 3.60275L38.9226 3.67506L38.945 3.72019L38.9535 3.73734L38.9855 3.79518L39.0068 3.82854L39.0139 3.86971L39.0246 3.93533L39.0388 3.97871L39.0768 4.04768L39.0814 4.04585L39.1147 4.07104L39.1479 4.09662L39.1657 4.10107L39.219 4.11442L39.2475 4.11553L39.2914 4.10998L39.3281 4.11109L39.3453 4.10243L39.423 4.06325L39.5605 3.99985L39.5795 3.99762L39.6423 3.99428L39.6601 4.01098L39.6779 4.0399L39.6819 4.05016L39.6945 4.08216L39.7063 4.11109L39.7146 4.11664L39.7656 4.15224L39.8723 4.13333L40.0134 4.02765L40.043 4.01943L40.0454 4.01876L40.1438 3.99762L40.1877 3.98539L40.1871 4.0389L40.1864 4.10664L40.2919 4.47263L40.3453 4.63173L40.4378 4.63394L40.4342 4.76301L40.4046 4.90541L40.4129 4.98441L40.4259 5.05562L40.4378 5.11348L40.4804 5.20138L40.5717 5.5085L40.5966 5.61978L40.6168 5.6999L40.65 5.79671L40.5966 5.80673L40.5765 5.92136L40.548 6.04379L40.5338 6.15842L40.5113 6.28975L40.5124 6.32092L40.4982 6.35764L40.4709 6.45559L40.4567 6.48564V6.50902L40.4602 6.56244L40.5729 6.57247L40.6401 6.57461L40.6772 6.57581L40.7685 6.56467L40.8207 6.55242L40.8562 6.54575L40.8977 6.54241L40.9392 6.54798L41.0068 6.57468L41.0281 6.58359L41.0661 6.58693H41.1111L41.1455 6.59473L41.1894 6.60251L41.2368 6.62924L41.2546 6.63591L41.2878 6.64148L41.3589 6.6437L41.385 6.63925L41.3933 6.62811L41.423 6.58136V6.53796L41.3447 6.47896L41.3494 6.47339L41.4277 6.44669L41.4834 6.4311L41.6008 6.36432L41.6245 6.34986L41.7123 6.23855L41.7443 6.27306L41.9375 6.2942L42.0217 6.302L42.1225 6.32871L42.132 6.33649L42.1462 6.371L42.148 6.37916L42.1616 6.44224L42.2636 6.46784L42.3608 6.47896L42.4142 6.48453L42.486 6.47719L42.5339 6.47229L42.6133 6.46338L42.6216 6.46403L42.7971 6.47785L42.873 6.50902L43.0473 6.58805L43.0556 6.60474L43.0722 6.65594L43.0733 6.72051L43.0828 6.81735L43.1172 6.86855L43.1741 6.98878L43.2037 7.12014L43.1907 7.21254L43.0638 7.46637L43.0437 7.55989L43.0271 7.63783L43.0301 7.63764L43.0272 7.64064L43.0189 7.84663L43.0509 8.00696L43.0972 8.09938L43.2193 8.15061L43.3912 8.22076L43.4197 8.22855L43.4446 8.29314L43.4529 8.36218L43.4244 8.49025L43.3557 8.59048L43.2916 8.65506L43.2561 8.69738L43.1766 8.7564L43.0012 8.87781L42.9371 8.90899L42.8944 8.93015L42.8245 8.95019L42.7202 8.9747L42.6597 8.98139L42.6111 8.97359L42.6028 9.01814V9.02928L42.6395 9.12395L42.6609 9.17296L42.7071 9.23532L42.7854 9.25538L42.9597 9.27319L43.0047 9.2743L43.1411 9.26095L43.1704 9.25717L43.3142 9.23866L43.4469 9.23978L43.5228 9.22308L43.6046 9.06269L43.6129 9.05823L43.6509 9.04041L43.7327 8.98249L43.8145 9.05935L43.8568 9.07813L43.8571 9.07827L43.9271 9.10947L43.9686 9.14622L44.0195 9.19188L44.0895 9.29324V9.35116L44.0765 9.39572L44.0753 9.46478L44.1085 9.51602L44.1642 9.50822L44.252 9.47369L44.367 9.47592L44.4464 9.48261L44.528 9.47607L44.6136 9.46924L44.814 9.4503L44.8578 9.44473L44.9847 9.38792L45.204 9.30438L45.2147 9.30327L45.2645 9.30104L45.2953 9.29993L45.3546 9.31775L45.4115 9.33445L45.6261 9.44807L45.7296 9.48454L45.7719 9.50711L45.8087 9.5383L45.8229 9.55834L45.8419 9.57283L45.9332 9.61738L45.9972 9.65081L46.015 9.65749L46.0435 9.66195L46.277 9.66418L46.3968 9.65749L46.43 9.66082L46.5189 9.66639L46.5533 9.66305L46.6256 9.69091L46.6612 9.74549L46.7114 9.82428L46.7249 9.84548L46.7584 9.89811L46.8687 9.93375L47.0346 10.0028L47.1912 10.18L47.2813 10.2067L47.4283 10.2446L47.5421 10.3237L47.6061 10.4451L47.6156 10.4551L47.6464 10.4685L47.6832 10.483L47.7377 10.5031L47.7593 10.5184Z" stroke="#353535" strokeLinecap="round" strokeLinejoin="round"/>
    <circle cx="30" cy="30" r="6" fill="#E93C00" fill-opacity="0.2"/>
    <circle cx="30" cy="30" r="3" fill="#E93C00"/>
  </g>
  <defs>
    <clipPath id="clip0_1_1137">
      <rect width="114" height="102" fill="white"/>
    </clipPath>
  </defs>
</svg>