<svg width="40" height="40" viewBox="0 0 40 40" fill="none" xmlns="http://www.w3.org/2000/svg">
  <path fill-rule="evenodd" clip-rule="evenodd" d="M26.9432 5.74169L27.4198 5.99987C28.221 6.43979 28.9741 6.901 29.687 7.47377C30.6249 7.09246 31.2166 6.48503 31.9126 5.77045L31.9555 5.72636L32.6185 5.05L33.1205 4.53076C33.3974 4.75951 33.673 4.98972 33.9482 5.22053L34.4138 5.60852C34.8372 6.00227 34.8372 6.00227 35.3277 6.73802L34.729 7.34732C34.4737 7.61413 34.2185 7.8811 33.9635 8.14822L33.5674 8.54867L33.5674 8.54868C33.3931 8.72743 33.2907 8.83257 33.1945 8.94318C33.0571 9.10117 32.9325 9.27031 32.63 9.68102L32.63 9.68104C32.7289 10.4761 33.0908 11.0661 33.5029 11.7381L33.5449 11.8065C35.9061 15.6712 36.3498 19.5769 35.5577 24.0129C35.0847 25.9253 34.2031 27.8154 32.9289 29.3299C32.7503 29.558 32.6651 29.6667 32.6305 29.7897C32.5988 29.9019 32.6092 30.0259 32.629 30.263C32.9635 30.9554 33.4442 31.4158 33.987 31.9357L33.987 31.9357L34.1168 32.0602L34.7999 32.7232L35.3277 33.2252C34.6542 34.2704 34.4271 34.6227 34.1464 34.9252C34.0037 35.079 33.8472 35.2199 33.611 35.4324L33.611 35.4324C32.673 35.0511 32.0814 34.4437 31.3854 33.7291L31.3424 33.685L30.6795 33.0087L30.1775 32.4894L29.6994 32.8218C26.8931 34.6994 23.7489 36.0275 20.3368 35.9996L19.7905 35.9954C16.1019 35.9149 12.9783 34.7392 10.0668 32.4894C8.94843 33.4225 7.89616 34.39 6.87858 35.4324C5.93978 35.05 5.3179 34.4916 4.67132 33.7157C4.69443 32.8104 5.26308 32.282 5.87789 31.7106L5.8779 31.7106L5.87791 31.7106C5.97085 31.6242 6.06484 31.5369 6.15816 31.4471L6.84122 30.7842L7.36908 30.2822C7.01813 29.3271 6.56453 28.4984 6.03553 27.6304C3.95754 24.1051 3.62359 19.8788 4.34847 15.865C4.99482 13.8294 6.05609 11.8547 7.36908 10.1715C6.9579 9.17198 6.23776 8.53088 5.46298 7.84114C5.34725 7.7381 5.23029 7.63398 5.11296 7.52742C4.86089 7.21685 4.75269 7.08353 4.70803 6.93155C4.67444 6.81724 4.67679 6.69238 4.6809 6.47361C4.94672 5.94197 5.23437 5.61082 5.66765 5.2052L6.07481 4.81816L6.38808 4.53076C7.1551 4.87034 7.67332 5.26534 8.25812 5.86431L8.69689 6.30787L8.6969 6.30788C8.85116 6.47848 8.94423 6.58141 9.031 6.68942C9.16299 6.85375 9.28037 7.02981 9.57631 7.47372L9.57634 7.47376L9.57634 7.47377L9.57635 7.47377C10.4072 7.17047 11.0513 6.8275 11.753 6.2935C16.0193 3.46549 22.4768 3.21918 26.9432 5.74169ZM19.3825 6.91785C22.5589 6.75975 25.3891 7.85249 27.9702 9.68076C27.6537 10.3743 27.3193 10.8859 26.7867 11.4299L26.3649 11.8636L25.9105 12.322L25.4412 12.7979C25.1141 13.1286 24.7863 13.4586 24.4579 13.7879C23.9547 14.294 23.4563 14.8045 22.9579 15.3153C22.6394 15.6361 22.3207 15.9565 22.0018 16.2767L21.5503 16.7426L21.5502 16.7427C21.3874 16.9039 21.2867 17.0035 21.1823 17.099C21.0134 17.2535 20.8348 17.3974 20.3674 17.774L20.3674 17.7741C19.5614 17.7071 19.156 17.389 18.5996 16.8256L18.1535 16.3792L17.6811 15.8954L17.1905 15.4016C16.674 14.881 16.1601 14.3579 15.6463 13.8347C15.2965 13.4812 14.9465 13.1278 14.5963 12.7747C13.7385 11.9088 12.8831 11.0406 12.0288 10.1713C12.38 9.1179 13.2918 8.67116 14.244 8.20465L14.2441 8.20463C14.4046 8.12598 14.5663 8.04677 14.7266 7.964C16.2565 7.31892 17.7328 7.06469 19.3825 6.91785ZM31.373 13.9882C31.0578 13.3691 30.7414 12.7508 30.4227 12.1335C30.1638 12.1335 30.0415 12.1335 29.9343 12.1736C29.8384 12.2095 29.7545 12.2774 29.5955 12.4062L29.205 12.7933L28.7611 13.2301L28.2835 13.7085C27.9507 14.0391 27.6181 14.3699 27.2857 14.701C26.7617 15.2266 26.2374 15.7517 25.7097 16.2735C25.366 16.6132 25.0231 16.9537 24.6811 17.2951L24.1908 17.7858L23.7116 18.2581L23.2701 18.7043C22.7108 19.2629 22.4083 19.6706 22.3294 20.472C22.6445 20.8759 22.764 21.0292 22.8943 21.1727C22.9739 21.2605 23.0576 21.3446 23.1923 21.4802L23.1924 21.4802L23.1924 21.4802L23.5863 21.8573C24.0011 22.2685 24.4166 22.6785 24.8362 23.0848C25.1247 23.3641 25.4121 23.6447 25.6981 23.9266C27.1483 25.3615 28.6008 26.7778 30.1774 28.0748C31.3171 26.734 32.0243 25.2055 32.5888 23.5501C33.4773 20.5139 33.055 17.295 31.6442 14.5118L31.373 13.9882ZM19.8769 22.1888C21.0219 23.1452 22.1065 24.1391 23.1562 25.1989L23.5777 25.6214C24.0155 26.0606 24.4523 26.5005 24.8892 26.9405L25.7873 27.842C26.5156 28.573 27.2431 29.3047 27.9702 30.0368C25.757 32.305 22.6804 32.9945 19.5856 33.0718C16.7649 32.994 14.6807 31.9042 12.2741 30.5273C12.2741 30.0873 12.2741 29.9105 12.3358 29.7587C12.3773 29.6567 12.4467 29.5661 12.5627 29.4145L12.972 29.0101L13.4333 28.5491L13.9372 28.0566L14.4486 27.5484C14.9892 27.0119 15.5323 26.4781 16.0755 25.9442C16.4419 25.5814 16.8082 25.2185 17.1743 24.8554C18.0733 23.9646 18.9745 23.0761 19.8769 22.1888ZM11.3216 13.3326C10.7806 12.7868 10.2772 12.4516 9.57637 12.1335C8.53115 13.3878 7.8838 14.6989 7.3557 16.2434C6.53888 19.3667 6.92304 22.5921 8.3549 25.4297L8.62602 25.9595C8.94179 26.5834 9.25834 27.2068 9.57637 27.8296C9.73562 27.8296 9.8485 27.8296 9.95496 27.8034C10.2141 27.7398 10.4351 27.5211 11.1942 26.7704L11.6533 26.3082C11.9738 25.9888 12.2941 25.6691 12.6142 25.3493C13.1186 24.8418 13.6232 24.3346 14.1304 23.83C14.4608 23.5016 14.7907 23.1726 15.1199 22.8431L15.5927 22.3689L16.0518 21.9128L16.4784 21.4815C17.0183 20.9399 17.3525 20.4334 17.6697 19.7363C16.844 18.9005 16.0174 18.0655 15.1894 17.232C14.8511 16.8917 14.5129 16.5513 14.1748 16.2108C13.6782 15.7079 13.1816 15.2051 12.6832 14.704L12.209 14.2277L11.7529 13.7639L11.3216 13.3326Z" fill="#E93C00"/>
</svg>