<svg width="40" height="40" viewBox="0 0 40 40" fill="none" xmlns="http://www.w3.org/2000/svg">
  <path fill-rule="evenodd" clip-rule="evenodd" d="M19.4377 9.02968L20.1526 9.01388C22.3213 9.00627 24.2088 9.52536 26.0918 10.6134L26.6432 10.9269C27.1748 11.2418 27.7052 11.5586 28.2344 11.8776L28.7168 11.3578C28.9285 11.1361 29.1403 10.9146 29.3523 10.6932L29.6692 10.3493C30.1718 9.82993 30.3522 9.64344 30.5704 9.57204C30.6926 9.53203 30.8266 9.52814 31.0358 9.52208C31.5059 9.79301 31.7817 10.0835 32.1204 10.5069L32.4564 10.9203L32.7059 11.2388L32.1861 11.7138C31.9644 11.9235 31.7429 12.1334 31.5215 12.3434L31.1776 12.6549L31.1776 12.6549C31.0262 12.7949 30.9367 12.8777 30.8535 12.9664C30.733 13.0949 30.6259 13.2359 30.3637 13.5811C30.3485 14.4066 30.7298 14.939 31.1881 15.5791C31.2191 15.6223 31.2504 15.666 31.282 15.7104C32.1263 16.9881 32.5426 18.2813 32.9189 19.7561L33.0436 20.1636C33.7362 23.6527 32.6644 27.2537 30.7896 30.1897C28.6397 33.1557 25.6185 35.122 22.0345 35.8631C18.466 36.3031 15.3524 35.6901 12.327 33.8012L12.3269 33.8011C11.9492 33.5727 11.7639 33.4608 11.5656 33.3817C11.3749 33.3057 11.172 33.2601 10.7741 33.1707L10.7741 33.1707C10.3205 33.5451 9.94473 33.8998 9.54974 34.3285L9.22286 34.6699C8.95673 34.9486 8.69396 35.2305 8.43185 35.5129C7.63019 35.1464 7.12219 34.6628 6.51548 34.0224C6.87247 33.1546 7.49771 32.598 8.17038 31.9991L8.17041 31.9991C8.27088 31.9097 8.37242 31.8193 8.47427 31.7268C8.71163 31.4914 8.81755 31.3864 8.85615 31.2607C8.88726 31.1594 8.87465 31.0447 8.85189 30.8376C8.59275 30.2933 8.28096 29.8039 7.95276 29.298C6.1406 26.2192 5.5764 22.7968 6.31585 19.2903C7.38747 15.6398 9.66421 12.4513 13.0248 10.5901C15.1986 9.45102 16.9958 9.03247 19.4377 9.02968ZM28.4473 15.7103C28.7248 16.2059 28.9993 16.7028 29.2724 17.2008L29.5078 17.6192C30.9163 20.2057 30.9087 23.1014 30.1549 25.9202C29.1591 28.9 27.1014 31.078 24.3218 32.4653C22.0821 33.5656 19.1703 33.8458 16.7345 33.1831C15.3403 32.7028 14.1104 32.0991 12.9034 31.2542C13.1784 30.6501 13.4671 30.2113 13.9354 29.7423L14.3099 29.3641L14.7196 28.9571L15.1519 28.5225C15.6235 28.0491 16.0966 27.5772 16.5698 27.1054L17.5531 26.1209C18.2398 25.4336 18.9272 24.747 19.6152 24.0611C20.4988 23.1799 21.3805 22.2967 22.2617 21.413C22.9379 20.7353 23.615 20.0586 24.2925 19.3822C24.6182 19.0569 24.9435 18.7312 25.2685 18.4052C25.7217 17.9509 26.1763 17.498 26.6312 17.0455L27.0408 16.6332C27.702 15.9785 27.8941 15.7882 28.1194 15.7329C28.2116 15.7103 28.3095 15.7103 28.4473 15.7103ZM26.1051 13.5813V13.5813C23.0457 11.7746 20.1152 10.8612 16.5764 11.6782C13.6112 12.6355 11.3868 14.5908 9.81753 17.2477L9.49647 17.8399C8.77873 19.148 8.59341 20.3731 8.55695 21.8474L8.55159 22.4445C8.53049 24.265 8.84149 25.687 9.657 27.3162L10.0421 27.9674C10.2594 28.3417 10.3546 28.5057 10.4575 28.6648C10.5378 28.7888 10.6228 28.9098 10.7741 29.1252C10.9104 29.1252 11.0075 29.1252 11.0993 29.103C11.327 29.0478 11.5215 28.8556 12.1988 28.1864L12.6165 27.7671C13.0802 27.3069 13.5434 26.8464 14.0053 26.3844C14.3363 26.0531 14.6676 25.722 14.9991 25.3913C15.6884 24.7042 16.3772 24.0167 17.0651 23.3282C17.9622 22.4296 18.86 21.5319 19.7603 20.6364C20.4611 19.9395 21.1611 19.2417 21.8601 18.5428C22.1931 18.2094 22.5263 17.8761 22.8595 17.543C23.3422 17.0634 23.8248 16.5837 24.3051 16.1017L24.7436 15.6609L25.1639 15.2455L25.5421 14.8628L25.8735 14.5315C26.1051 14.2201 26.1051 14.2201 26.1051 13.5813Z" fill="#16AEF9"/>
  <path d="M12.0517 4C17.1812 4 22.3107 4 27.5956 4C27.5956 4.77294 27.5956 5.54588 27.5956 6.34224C22.4661 6.34224 17.3366 6.34224 12.0517 6.34224C12.0517 5.5693 12.0517 4.79636 12.0517 4Z" fill="#16AEF9"/>
</svg>