<svg width="22" height="24" viewBox="0 0 22 24" fill="none" xmlns="http://www.w3.org/2000/svg">
  <g clip-path="url(#clip0_1_907)">
    <path d="M8.09981 11.4144L1.08514 15.4379C0.723427 15.6429 0.452142 15.8479 0.271285 16.0529C0.0904284 16.2579 0 16.4886 0 16.7449C0 17.0524 0.150714 17.4581 0.452142 17.9621L0.516734 18.0775C0.938734 18.8207 1.38657 19.1923 1.86024 19.1923C2.14445 19.1923 2.532 19.047 3.0229 18.7566L9.84379 14.8485L8.97825 14.3871V22.2163C8.97825 22.9082 9.1182 23.3781 9.3981 23.6258C9.678 23.8735 10.1797 23.9974 10.9031 23.9974H11.071C11.7858 23.9974 12.2832 23.8735 12.5631 23.6258C12.843 23.3781 12.9829 22.9082 12.9829 22.2163V14.3871L12.1174 14.8485L18.9383 18.7566C19.1708 18.8933 19.3797 18.9979 19.5648 19.0705C19.75 19.1431 19.9201 19.1794 20.0751 19.1794C20.3249 19.1794 20.5531 19.0897 20.7598 18.9104C20.9665 18.731 21.1947 18.4576 21.4444 18.0903L21.5349 17.9493C21.845 17.4966 22 17.1037 22 16.7705C22 16.5057 21.9052 16.2686 21.7157 16.0593C21.5263 15.8501 21.2464 15.6429 20.876 15.4379L13.8743 11.4144V12.3498L20.8632 8.55692C21.2335 8.36044 21.5069 8.15969 21.6834 7.95467C21.86 7.74965 21.9483 7.51473 21.9483 7.24991C21.9483 6.94239 21.8105 6.54516 21.5349 6.05824L21.4316 5.90448C21.0096 5.16983 20.566 4.80251 20.1009 4.80251C19.7909 4.80251 19.3991 4.93919 18.9253 5.21254L12.1174 9.13353L12.9829 9.58201V1.77847C12.9829 1.08654 12.843 0.616703 12.5631 0.368972C12.2832 0.121241 11.7858 -0.00262451 11.071 -0.00262451H10.9031C10.1797 -0.00262451 9.678 0.121241 9.3981 0.368972C9.1182 0.616703 8.97825 1.08654 8.97825 1.77847V9.58201L9.84379 9.13353L3.03581 5.21254C2.80328 5.07586 2.58367 4.96908 2.37698 4.8922C2.17028 4.81532 1.98081 4.77688 1.80857 4.77688C1.54159 4.77688 1.3026 4.86658 1.0916 5.04597C0.880601 5.22535 0.680367 5.51152 0.490898 5.90448L0.426306 6.04544C0.185163 6.56652 0.0645917 6.97656 0.0645917 7.27555C0.0645917 7.53182 0.148561 7.75819 0.3165 7.95467C0.484439 8.15114 0.753571 8.35616 1.1239 8.56972L8.09981 12.3498V11.4144Z" fill="white"/>
  </g>
  <defs>
    <clipPath id="clip0_1_907">
      <rect width="22" height="24" fill="white"/>
    </clipPath>
  </defs>
</svg>